<svg width="1600" height="400" viewBox="0 0 1600 400" fill="none" xmlns="http://www.w3.org/2000/svg">
<g clip-path="url(#clip0)">
<rect width="1600" height="400" fill="#F4FFFF" fill-opacity="0.5"/>
<path d="M754.79 421.888C1165.49 159.936 729.703 -70.032 460.472 -152.272L-320.073 -55.676L-271.49 493.795C-100.522 578.973 344.089 683.841 754.79 421.888Z" fill="#D1EDEE" fill-opacity="0.5"/>
<path d="M882.47 27.8179C1264.27 -62.2675 607.888 -67.9346 364.707 -68.0458L-84.2157 -7.39356L-55.2895 117.181C98.2139 124.929 500.671 117.903 882.47 27.8179Z" fill="url(#paint0_linear)" fill-opacity="0.5"/>
<path d="M585.83 400.316H232.583L376.936 57.4221H441.478L585.83 400.316Z" fill="#D0F0E4"/>
<path d="M403.085 31.6226L409.207 25.499L415.328 31.6226" stroke="#FFCF2D" stroke-miterlimit="10"/>
<path d="M409.207 25.4989V4.98975" stroke="#FFCF2D" stroke-miterlimit="10"/>
<path d="M409.206 68.1142C414.649 68.1142 419.061 63.7002 419.061 58.2553C419.061 52.8104 414.649 48.3965 409.206 48.3965C403.764 48.3965 399.352 52.8104 399.352 58.2553C399.352 63.7002 403.764 68.1142 409.206 68.1142Z" fill="#FFCF2D" stroke="white" stroke-miterlimit="10"/>
<path d="M441.477 57.4222H376.949L377.81 53.4925C380.641 40.551 393.841 31.1643 409.22 31.1643C416.91 31.1643 424.058 33.511 429.624 37.4684C435.204 41.4258 439.201 47.0079 440.617 53.4786L441.477 57.4222Z" stroke="#9A3B82" stroke-miterlimit="10" stroke-linecap="round"/>
<path d="M508.657 278.566H502.105V319.945H508.657V278.566Z" fill="#66B0F0"/>
<path d="M627.622 319.945H590.327C588.98 319.945 587.939 318.779 588.106 317.446L593.297 273.609C593.436 272.484 594.394 271.637 595.518 271.637H632.813C634.16 271.637 635.201 272.803 635.034 274.136L629.843 317.974C629.704 319.098 628.747 319.945 627.622 319.945Z" fill="#9A3B82"/>
<path d="M607.302 319.945H577.849C576.044 319.945 574.642 318.362 574.851 316.571L578.626 284.648C578.806 283.134 580.097 281.982 581.624 281.982H611.785L607.302 319.945Z" fill="white" stroke="#FFCF2D" stroke-miterlimit="10"/>
<path d="M610.606 319.945H582.499C580.694 319.945 579.292 318.362 579.501 316.571L583.276 284.648C583.456 283.134 584.747 281.982 586.274 281.982H614.742C615.644 281.982 616.352 282.773 616.241 283.676L612.105 318.599C612.021 319.376 611.369 319.945 610.606 319.945Z" fill="white" stroke="#FFCF2D" stroke-miterlimit="10"/>
<path d="M520.441 284.787H509.073V319.945H520.441V284.787Z" stroke="#9A3B82" stroke-miterlimit="10" stroke-linecap="round"/>
<path d="M532.489 284.787H516.485V319.945H532.489V284.787Z" stroke="#9A3B82" stroke-miterlimit="10" stroke-linecap="round"/>
<path d="M551.879 319.946H547.452L530.976 280.927H535.404L551.879 319.946Z" stroke="#9A3B82" stroke-miterlimit="10" stroke-linecap="round"/>
<path d="M560.318 319.945H552.074L537.888 286.856H546.133L560.318 319.945Z" stroke="#9A3B82" stroke-miterlimit="10" stroke-linecap="round"/>
<path d="M501.689 284.787H490.224V319.945H501.689V284.787Z" stroke="#9A3B82" stroke-miterlimit="10" stroke-linecap="round"/>
<path d="M543.551 257.834H490.224V264.694H543.551V257.834Z" stroke="#9A3B82" stroke-miterlimit="10" stroke-linecap="round"/>
<path d="M557.778 252.586H490.224V258.112H557.778V252.586Z" fill="#FE5244"/>
<path d="M535.82 244.615H490.224V252.447H535.82V244.615Z" fill="#FFCF2D"/>
<path d="M543.551 238.631H490.224V244.476H543.551V238.631Z" stroke="#9A3B82" stroke-miterlimit="10" stroke-linecap="round"/>
<path d="M635.562 223.217L635.52 223.454L629.218 264.694H570.756L577.057 223.454L577.141 222.87C578.14 220.843 584.247 219.274 591.645 219.274C599.737 219.274 606.289 221.149 606.289 223.454C606.289 221.149 612.84 219.274 620.932 219.274C628.747 219.288 635.117 221.024 635.562 223.217Z" fill="white" stroke="#FFCF2D" stroke-miterlimit="10"/>
<path d="M600.057 264.708L606.303 223.468" stroke="#FFCF2D" stroke-miterlimit="10"/>
<path d="M600.056 264.708C600.056 262.403 593.505 260.528 585.413 260.528C577.321 260.528 570.77 262.403 570.77 264.708H600.056Z" fill="#FFCF2D"/>
<path d="M629.343 264.708C629.343 262.403 622.792 260.528 614.7 260.528C606.608 260.528 600.057 262.403 600.057 264.708H629.343Z" fill="#FFCF2D"/>
<path d="M600.279 263.833C600.195 261.528 606.677 259.431 614.769 259.14C619.822 258.959 624.805 259.667 627.428 260.681L633.674 221.398" stroke="#FFCF2D" stroke-miterlimit="10" stroke-linecap="round"/>
<path d="M630.898 209.457H578.404V197.765C578.404 196.612 579.334 195.682 580.486 195.682H628.83C629.982 195.682 630.912 196.612 630.912 197.765V209.457H630.898Z" fill="white" stroke="#9A3B82" stroke-miterlimit="10" stroke-linecap="round"/>
<path d="M635.09 195.127H589.855C589.147 195.127 588.592 194.557 588.592 193.863V189.211C588.592 188.503 589.161 187.948 589.855 187.948H635.09C635.798 187.948 636.353 188.517 636.353 189.211V193.863C636.353 194.557 635.784 195.127 635.09 195.127Z" fill="#FFCF2D"/>
<path d="M636.852 183.588H583.192V187.948H636.852V183.588Z" fill="#FE5244"/>
<path d="M635.881 183.588H594.921C594.379 183.588 593.949 183.143 593.949 182.616V179.103C593.949 178.561 594.393 178.131 594.921 178.131H635.881C636.422 178.131 636.852 178.575 636.852 179.103V182.616C636.852 183.143 636.422 183.588 635.881 183.588Z" fill="white" stroke="#9A3B82" stroke-miterlimit="10" stroke-linecap="round"/>
<path d="M523.203 166.564H507.449V209.457H523.203V166.564Z" stroke="#9A3B82" stroke-miterlimit="10" stroke-linecap="round"/>
<path d="M507.449 166.564H501.092V209.457H507.449V166.564Z" fill="white" stroke="#9A3B82" stroke-miterlimit="10" stroke-linecap="round"/>
<path d="M501.092 166.564H490.405V209.457H501.092V166.564Z" fill="white" stroke="#9A3B82" stroke-miterlimit="10" stroke-linecap="round"/>
<path d="M539.096 174.312H525.285V209.471H539.096V174.312Z" stroke="#9A3B82" stroke-miterlimit="10" stroke-linecap="round"/>
<path d="M526.285 209.457H520.844C520.316 209.457 519.872 209.026 519.872 208.485V175.256C519.872 174.729 520.302 174.284 520.844 174.284H526.285C526.812 174.284 527.256 174.715 527.256 175.256V208.485C527.242 209.026 526.812 209.457 526.285 209.457Z" fill="white" stroke="#9A3B82" stroke-miterlimit="10" stroke-linecap="round"/>
<path d="M539.096 174.312V193.585L531.614 174.312H539.096Z" fill="#9A3B82"/>
<path d="M571.075 209.457H548.978C548.492 209.457 548.048 209.151 547.882 208.707L533.53 171.743C533.224 170.965 533.794 170.132 534.626 170.132H556.723C557.209 170.132 557.653 170.438 557.82 170.882L572.172 207.846C572.477 208.624 571.908 209.457 571.075 209.457Z" fill="white" stroke="#FFCF2D" stroke-miterlimit="10"/>
<path d="M574.684 209.457H552.587C552.101 209.457 551.657 209.151 551.491 208.707L537.139 171.743C536.833 170.965 537.402 170.132 538.235 170.132H560.332C560.818 170.132 561.262 170.438 561.429 170.882L575.781 207.846C576.086 208.624 575.517 209.457 574.684 209.457Z" fill="white" stroke="#FFCF2D" stroke-miterlimit="10"/>
<path d="M613.492 144.833C611.424 145.416 609.231 145.735 606.983 145.735C593.838 145.735 583.192 135.085 583.192 121.935C583.192 111.09 590.452 101.926 600.376 99.0654L613.492 144.833Z" stroke="#FFCF2D" stroke-miterlimit="10"/>
<path d="M606.983 145.735V154.22" stroke="#FFCF2D" stroke-miterlimit="10"/>
<path d="M606.982 142.097C618.113 142.097 627.136 133.07 627.136 121.935C627.136 110.8 618.113 101.773 606.982 101.773C595.852 101.773 586.829 110.8 586.829 121.935C586.829 133.07 595.852 142.097 606.982 142.097Z" fill="white" stroke="#3FB1B5" stroke-miterlimit="10"/>
<path d="M615.408 154.164H598.627L606.955 149.984L615.408 154.164Z" fill="white" stroke="#FFCF2D" stroke-miterlimit="10"/>
<path d="M636.852 154.219V400.316H629.26V382.403C629.26 378.418 626.026 375.183 622.042 375.183H504.951C500.967 375.183 497.733 378.418 497.733 382.403V400.316H490.224V154.219H636.852Z" stroke="#9A3B82" stroke-miterlimit="10" stroke-linecap="round"/>
<path d="M626.318 368.365H500.481C498.885 368.365 497.581 367.074 497.581 365.463V329.235C497.581 327.638 498.871 326.333 500.481 326.333H626.318C627.914 326.333 629.218 327.624 629.218 329.235V365.463C629.218 367.074 627.914 368.365 626.318 368.365Z" stroke="#3FB1B5" stroke-miterlimit="10"/>
<path d="M570.034 120.422V154.219H558.208L570.034 120.422Z" fill="#9A3B82"/>
<path d="M570.034 120.422L569.951 120.672L558.278 154.219H504.007L515.68 120.672L516.055 119.602C517.804 117.089 522.648 115.256 528.422 115.159C528.519 115.159 528.602 115.159 528.699 115.159C528.796 115.159 528.88 115.159 528.977 115.159C535.723 115.159 541.733 117.506 542.829 120.588C543.912 117.506 549.658 115.159 556.404 115.159C563.011 115.159 568.799 117.422 570.034 120.422Z" fill="white" stroke="#FFCF2D" stroke-miterlimit="10"/>
<path d="M542.815 120.588L531.031 153.525" stroke="#FFCF2D" stroke-miterlimit="10" stroke-linecap="round"/>
<path d="M531.003 153.803H504.007C505.006 150.679 510.614 148.276 517.359 148.276C524.133 148.276 530.004 150.679 531.003 153.803Z" fill="#FFCF2D"/>
<path d="M558.209 153.803H531.212C532.211 150.679 537.819 148.276 544.564 148.276C551.338 148.276 557.209 150.679 558.209 153.803Z" fill="#FFCF2D"/>
<path d="M554.364 337.066C554.364 335.983 555.238 335.095 556.335 335.095H571.061C572.144 335.095 573.032 335.97 573.032 337.066" stroke="#9A3B82" stroke-miterlimit="10" stroke-linecap="round"/>
<path d="M490.224 264.708H636.852" stroke="#9A3B82" stroke-miterlimit="10" stroke-linecap="round"/>
<path d="M490.224 209.457H636.852" stroke="#9A3B82" stroke-miterlimit="10" stroke-linecap="round"/>
<path d="M490.224 319.945H636.852" stroke="#9A3B82" stroke-miterlimit="10" stroke-linecap="round"/>
<path d="M508.268 102.62L490.224 154.219H636.852L654.896 102.62" stroke="#9A3B82" stroke-miterlimit="10" stroke-linecap="round" stroke-linejoin="round"/>
<path d="M671.358 387.069C671.358 389.86 670.844 392.54 669.9 395.025C668.526 398.636 665.042 400.996 661.17 400.996H631.786C627.927 400.996 624.429 398.636 623.069 395.025C622.125 392.54 621.612 389.86 621.612 387.069C621.612 379.015 625.873 371.906 632.383 367.657V362.963C632.383 365.018 638.698 366.685 646.471 366.685C654.258 366.685 660.559 365.018 660.559 362.963V367.671C667.097 371.906 671.358 379.015 671.358 387.069Z" fill="#FE5244"/>
<path d="M660.587 366.379V367.629C658.352 369.406 652.273 370.35 646.499 370.35C640.725 370.35 634.645 369.406 632.411 367.629V366.379C632.674 366.976 633.799 367.754 636.297 368.406C639.018 369.128 642.64 369.517 646.499 369.517C650.357 369.517 653.98 369.128 656.701 368.406C659.199 367.74 660.309 366.962 660.587 366.379Z" fill="white"/>
<path d="M660.587 362.963C660.587 365.018 654.272 366.685 646.499 366.685C638.726 366.685 632.411 365.018 632.411 362.963C632.411 362.7 632.508 362.45 632.702 362.2C634.035 360.519 639.698 359.242 646.499 359.242C653.3 359.242 658.963 360.506 660.295 362.2C660.476 362.45 660.587 362.7 660.587 362.963Z" fill="#66B0F0"/>
<path d="M627.636 381.168C628.617 381.168 629.412 380.372 629.412 379.39C629.412 378.409 628.617 377.613 627.636 377.613C626.654 377.613 625.859 378.409 625.859 379.39C625.859 380.372 626.654 381.168 627.636 381.168Z" stroke="#FFCF2D" stroke-miterlimit="10"/>
<path d="M633.659 385.542C634.641 385.542 635.436 384.746 635.436 383.764C635.436 382.783 634.641 381.987 633.659 381.987C632.678 381.987 631.883 382.783 631.883 383.764C631.883 384.746 632.678 385.542 633.659 385.542Z" stroke="#FFCF2D" stroke-miterlimit="10"/>
<path d="M641.155 380.348C642.136 380.348 642.931 379.552 642.931 378.571C642.931 377.589 642.136 376.793 641.155 376.793C640.173 376.793 639.378 377.589 639.378 378.571C639.378 379.552 640.173 380.348 641.155 380.348Z" stroke="#FFCF2D" stroke-miterlimit="10"/>
<path d="M640.1 392.151C641.081 392.151 641.876 391.355 641.876 390.374C641.876 389.392 641.081 388.596 640.1 388.596C639.119 388.596 638.323 389.392 638.323 390.374C638.323 391.355 639.119 392.151 640.1 392.151Z" stroke="#FFCF2D" stroke-miterlimit="10"/>
<path d="M633.437 397.33C634.419 397.33 635.214 396.535 635.214 395.553C635.214 394.571 634.419 393.776 633.437 393.776C632.456 393.776 631.661 394.571 631.661 395.553C631.661 396.535 632.456 397.33 633.437 397.33Z" stroke="#FFCF2D" stroke-miterlimit="10"/>
<path d="M626.719 392.151C627.701 392.151 628.496 391.355 628.496 390.374C628.496 389.392 627.701 388.596 626.719 388.596C625.738 388.596 624.943 389.392 624.943 390.374C624.943 391.355 625.738 392.151 626.719 392.151Z" stroke="#FFCF2D" stroke-miterlimit="10"/>
<path d="M634.631 374.572C635.612 374.572 636.408 373.776 636.408 372.794C636.408 371.813 635.612 371.017 634.631 371.017C633.65 371.017 632.854 371.813 632.854 372.794C632.854 373.776 633.65 374.572 634.631 374.572Z" stroke="#FFCF2D" stroke-miterlimit="10"/>
<path d="M648.775 375.919C649.756 375.919 650.551 375.123 650.551 374.141C650.551 373.16 649.756 372.364 648.775 372.364C647.793 372.364 646.998 373.16 646.998 374.141C646.998 375.123 647.793 375.919 648.775 375.919Z" stroke="#FFCF2D" stroke-miterlimit="10"/>
<path d="M647.29 386.694C648.271 386.694 649.066 385.898 649.066 384.917C649.066 383.935 648.271 383.139 647.29 383.139C646.309 383.139 645.513 383.935 645.513 384.917C645.513 385.898 646.309 386.694 647.29 386.694Z" stroke="#FFCF2D" stroke-miterlimit="10"/>
<path d="M652.425 393.776C653.406 393.776 654.202 392.98 654.202 391.999C654.202 391.017 653.406 390.221 652.425 390.221C651.444 390.221 650.648 391.017 650.648 391.999C650.648 392.98 651.444 393.776 652.425 393.776Z" stroke="#FFCF2D" stroke-miterlimit="10"/>
<path d="M645.763 399.108C646.744 399.108 647.54 398.312 647.54 397.331C647.54 396.349 646.744 395.553 645.763 395.553C644.782 395.553 643.986 396.349 643.986 397.331C643.986 398.312 644.782 399.108 645.763 399.108Z" stroke="#FFCF2D" stroke-miterlimit="10"/>
<path d="M654.327 382.445C655.308 382.445 656.104 381.649 656.104 380.668C656.104 379.686 655.308 378.89 654.327 378.89C653.346 378.89 652.55 379.686 652.55 380.668C652.55 381.649 653.346 382.445 654.327 382.445Z" stroke="#FFCF2D" stroke-miterlimit="10"/>
<path d="M659.476 375.155C660.458 375.155 661.253 374.359 661.253 373.378C661.253 372.396 660.458 371.6 659.476 371.6C658.495 371.6 657.7 372.396 657.7 373.378C657.7 374.359 658.495 375.155 659.476 375.155Z" stroke="#FFCF2D" stroke-miterlimit="10"/>
<path d="M665.334 381.056C666.315 381.056 667.11 380.261 667.11 379.279C667.11 378.297 666.315 377.502 665.334 377.502C664.353 377.502 663.557 378.297 663.557 379.279C663.557 380.261 664.353 381.056 665.334 381.056Z" stroke="#FFCF2D" stroke-miterlimit="10"/>
<path d="M658.629 386.875C659.61 386.875 660.406 386.079 660.406 385.097C660.406 384.116 659.61 383.32 658.629 383.32C657.648 383.32 656.853 384.116 656.853 385.097C656.853 386.079 657.648 386.875 658.629 386.875Z" stroke="#FFCF2D" stroke-miterlimit="10"/>
<path d="M666.652 390.596C667.633 390.596 668.429 389.8 668.429 388.819C668.429 387.837 667.633 387.041 666.652 387.041C665.671 387.041 664.875 387.837 664.875 388.819C664.875 389.8 665.671 390.596 666.652 390.596Z" stroke="#FFCF2D" stroke-miterlimit="10"/>
<path d="M661.253 397.428C662.234 397.428 663.029 396.632 663.029 395.65C663.029 394.669 662.234 393.873 661.253 393.873C660.271 393.873 659.476 394.669 659.476 395.65C659.476 396.632 660.271 397.428 661.253 397.428Z" stroke="#FFCF2D" stroke-miterlimit="10"/>
<path d="M677.618 341.329C677.618 341.329 690.804 334.206 692.983 346.648C695.509 361.019 678.354 373.669 678.354 373.669C678.354 373.669 674.662 364.518 664.765 356.631C656.201 349.814 663.308 331.734 677.618 341.329Z" fill="white" stroke="#FFCF2D" stroke-miterlimit="10"/>
<path d="M651.732 325.486C657.992 325.541 666.986 312.822 658.491 298.867C648.234 282.01 646.471 272.248 646.471 272.248C646.471 272.248 631.384 292.216 633.951 307.532C636.769 324.306 651.732 325.486 651.732 325.486Z" fill="#FFCF2D"/>
<path d="M652.814 317.016C661.961 319.432 670.65 313.864 670.831 301.172C671.15 278.733 675.397 271.429 675.397 271.429C675.397 271.429 646.901 281.69 642.585 297.631C638.476 312.822 652.814 317.016 652.814 317.016Z" fill="white" stroke="#FFCF2D" stroke-miterlimit="10"/>
<path d="M614.589 331.79C614.256 331.818 613.909 331.846 613.534 331.873C593.852 333.345 588.189 351.369 588.189 351.369C588.189 351.369 586.981 350.064 587.231 345.551C587.703 333.915 598.405 321.889 610.619 329.527C611.979 330.388 613.312 331.123 614.589 331.79Z" fill="#FFCF2D"/>
<path d="M636.908 336.219C633.438 336.441 625.512 337.4 614.589 331.79C613.312 331.137 611.979 330.387 610.619 329.526C598.405 321.889 587.981 333.914 587.509 345.551C587.481 346.12 587.62 346.689 587.648 347.245C586.496 337.136 586.524 311.975 617.101 312.822C638.115 313.433 636.908 336.219 636.908 336.219Z" fill="white" stroke="#FFCF2D" stroke-miterlimit="10"/>
<path d="M641.904 362.227C641.904 362.227 645.527 311.725 596.572 318.321" stroke="#FFCF2D" stroke-miterlimit="10"/>
<path d="M675.397 271.429C644.556 302.949 650.302 362.227 650.302 362.227C647.054 339.552 666.986 317.016 677.604 340.732C680.769 347.786 678.34 373.655 678.34 373.655" stroke="#FFCF2D" stroke-miterlimit="10"/>
<path d="M218.412 322.528L214.276 326.152C213.61 325.361 213.013 324.486 212.499 323.528L186.71 275.456C185.627 273.442 187.085 271.012 189.361 271.012H192.97C195.857 271.012 198.494 272.595 199.854 275.136L220.133 312.933C221.882 316.155 221.16 320.14 218.412 322.528Z" fill="#FFCF2D"/>
<path d="M288.617 323.584L228.614 335.914V334.664C228.614 328.68 232.819 323.528 238.677 322.32L277.333 314.377C283.162 313.183 288.617 317.64 288.617 323.584Z" fill="#FFCF2D"/>
<path d="M281.816 400.316V340.177C281.816 335.192 277.249 331.471 272.363 332.47L234.679 340.205C230.196 341.121 226.504 344.259 224.866 348.536L204.976 400.316" stroke="#9A3B82" stroke-miterlimit="10" stroke-linecap="round"/>
<path d="M186.558 275.192L215.858 329.804C218.371 334.484 223.645 336.956 228.85 335.886L288.756 323.584" stroke="#9A3B82" stroke-miterlimit="10" stroke-linecap="round"/>
<path d="M309.895 278.983H259.191V285.759H309.895V278.983Z" fill="#66B0F0"/>
<path d="M300.651 271.623C301.262 272.192 301.636 273.22 301.636 274.081C301.636 275.803 300.137 277.566 298.277 277.566H252.029C252.029 278.372 252.682 279.024 253.487 279.024H309.298C310.797 279.024 312.144 278.469 313.129 277.552C314.115 276.65 314.711 275.386 314.711 273.998C314.711 271.22 312.282 268.985 309.298 268.985H253.487C252.682 268.985 252.029 269.637 252.029 270.443V270.707H298.277C299.207 270.721 300.04 271.068 300.651 271.623Z" fill="#FE5244"/>
<path d="M255.374 270.72V277.441H252.043V277.997H298.444C298.957 277.997 299.457 277.899 299.901 277.719C300.401 277.525 300.845 277.219 301.206 276.858C301.914 276.15 302.358 275.164 302.358 274.081C302.358 271.915 300.595 270.165 298.444 270.165H252.043V270.72H255.374V270.72Z" fill="#FE5244"/>
<path d="M254.083 270.721V277.442H298.277C300.137 277.442 301.636 275.942 301.636 274.081C301.636 273.151 301.262 272.318 300.651 271.707C300.04 271.096 299.207 270.721 298.277 270.721H254.083V270.721Z" fill="white"/>
<path d="M254.083 270.721V277.442" stroke="#FE5244" stroke-miterlimit="10"/>
<path d="M292.101 275.483V281.093H295.973V276.205C295.973 275.039 296.917 274.095 298.083 274.095H299.804V273.373H294.196C293.058 273.373 292.101 274.317 292.101 275.483Z" fill="#FFCF2D"/>
<path d="M230.724 291.563C230.724 288.605 233.125 286.203 236.081 286.203H341.431C344.387 286.203 346.788 288.605 346.788 291.563" stroke="#9A3B82" stroke-miterlimit="10" stroke-linecap="round"/>
<path d="M346.871 400.316L317.126 296.673C315.808 292.091 311.269 288.897 306.078 288.897H271.42C266.228 288.897 261.69 292.091 260.371 296.673L230.64 400.316" stroke="#9A3B82" stroke-miterlimit="10" stroke-linecap="round"/>
<path d="M371.841 382.375V397.483C371.841 399.052 373.104 400.316 374.673 400.316H412.426C412.426 400.316 412.649 393.304 406.902 391.346C397.145 388.027 392.592 382.375 392.592 382.375H371.841V382.375Z" fill="white" stroke="#FE5244" stroke-miterlimit="10"/>
<path d="M392.842 390.11C394.382 389.679 399.935 386.611 398.033 384.708C397.131 383.806 394.965 384.708 394.965 384.708" stroke="#FE5244" stroke-miterlimit="10"/>
<path d="M398.533 392.193C400.073 391.762 405.403 388.332 403.307 386.652C401.725 385.375 399.352 387.846 399.352 387.846" stroke="#FE5244" stroke-miterlimit="10"/>
<path d="M393.758 383.597L371.841 390.415V382.375H392.606C392.606 382.375 392.981 382.848 393.758 383.597Z" fill="#FE5244"/>
<path d="M419.172 382.375V397.483C419.172 399.052 420.435 400.316 422.003 400.316H459.757C459.757 400.316 459.979 393.304 454.233 391.346C444.475 388.027 439.922 382.375 439.922 382.375H419.172V382.375Z" fill="white" stroke="#FE5244" stroke-miterlimit="10"/>
<path d="M440.172 390.11C441.713 389.679 447.265 386.611 445.363 384.708C444.461 383.806 442.296 384.708 442.296 384.708" stroke="#FE5244" stroke-miterlimit="10"/>
<path d="M445.863 392.193C447.404 391.762 452.734 388.332 450.638 386.652C449.056 385.375 446.682 387.846 446.682 387.846" stroke="#FE5244" stroke-miterlimit="10"/>
<path d="M441.088 383.597L419.172 390.415V382.375H439.936C439.936 382.375 440.311 382.848 441.088 383.597Z" fill="#FE5244"/>
<path d="M382.043 231.993L368.372 375.183H396.964L411.33 305.796L417.201 320.584V375.183H446.974V313.961L431.095 231.993H382.043Z" fill="#3FB1B5"/>
<path d="M396.936 266.388L383.639 375.183" stroke="#9A3B82" stroke-miterlimit="10"/>
<path d="M431.567 375.183V313.961L412.912 238.936" stroke="#9A3B82" stroke-miterlimit="10"/>
<path d="M416.784 320.584L398.963 268.804C398.352 267.027 396.672 265.833 394.785 265.833" stroke="white" stroke-miterlimit="10"/>
<path d="M379.781 255.668L382.043 231.993H431.095L432.497 239.269L379.781 255.668Z" fill="#9A3B82"/>
<path d="M447.029 382.375H417.09C415.966 382.375 415.05 381.459 415.05 380.334V377.224C415.05 376.099 415.966 375.183 417.09 375.183H447.029C448.154 375.183 449.07 376.099 449.07 377.224V380.334C449.056 381.459 448.154 382.375 447.029 382.375Z" fill="#9A3B82"/>
<path d="M397.478 382.375H367.538C366.414 382.375 365.498 381.459 365.498 380.334V377.224C365.498 376.099 366.414 375.183 367.538 375.183H397.478C398.602 375.183 399.518 376.099 399.518 377.224V380.334C399.504 381.459 398.602 382.375 397.478 382.375Z" fill="#9A3B82"/>
<path d="M477.385 236.187L486.768 271.304L439.992 283.815L430.595 248.67C430.304 247.573 429.596 246.712 428.694 246.184C427.792 245.657 426.681 245.476 425.585 245.768C423.406 246.351 422.101 248.601 422.684 250.781L432.081 285.925L431.053 286.203L421.671 251.086C420.921 248.295 422.531 245.435 425.279 244.601C425.335 244.588 425.39 244.574 425.446 244.56L470.861 232.41C473.707 231.66 476.622 233.354 477.385 236.187Z" fill="#66B0F0"/>
<path d="M431.636 248.434L441.019 283.551L439.992 283.829L430.595 248.684C430.304 247.587 429.596 246.726 428.694 246.198C427.792 245.671 426.681 245.49 425.585 245.782C423.406 246.365 422.101 248.614 422.684 250.794L432.081 285.939L431.053 286.217L421.671 251.1C420.921 248.309 422.531 245.448 425.279 244.615C428.069 243.963 430.887 245.643 431.636 248.434Z" fill="#9A3B82"/>
<path d="M430.595 248.67L439.409 281.662L431.498 283.773L422.684 250.781C422.101 248.601 423.392 246.351 425.585 245.768C426.681 245.476 427.792 245.657 428.694 246.184C429.596 246.712 430.304 247.573 430.595 248.67Z" fill="white"/>
<path d="M477.524 254.793L456.246 262.125L439.451 231.993H374.354C363.291 231.993 355.019 221.815 357.281 210.984L364.055 178.436C366.178 168.244 375.159 160.94 385.555 160.94H430.068C440.853 160.94 450.041 168.771 451.749 179.422L458.453 211.109L477.524 254.793Z" fill="#FFCF2D" stroke="white" stroke-miterlimit="10"/>
<path d="M370.884 231.646C363.222 230.105 357.531 223.578 356.948 215.886C357.531 215.483 358.184 215.136 358.878 214.886C363.916 213.025 369.676 216.08 371.772 221.704C373.063 225.231 372.619 228.924 370.884 231.646Z" fill="white"/>
<path d="M419.353 141.417V160.954H397.797L402.766 147.957L419.353 141.417Z" fill="#E57281"/>
<path d="M424.308 133.196C424.294 133.196 424.266 133.21 424.252 133.21L417.854 134.904C415.563 135.515 413.801 137.209 413.051 139.348H410.594C409.04 139.348 407.777 140.611 407.777 142.167V142.208C407.777 143.68 408.901 144.888 410.345 145.013C410.331 145.027 410.331 145.027 410.331 145.027C410.331 145.027 409.192 150.442 402.544 148.623C402.544 148.623 402.808 134.377 403.085 129.947C403.321 126.295 422.684 119.38 424.474 122.324C426.057 124.934 424.225 126.156 422.67 126.698C425.418 126.115 430.609 125.337 431.137 127.656C431.747 130.35 426.265 132.683 424.308 133.196Z" fill="#9A3B82"/>
<path d="M425.557 143.18H424.877L425.071 146.513C425.21 148.901 423.295 150.928 420.907 150.928H417.909C415.022 150.928 412.676 148.582 412.676 145.693V145.041H410.608C409.054 145.041 407.791 143.777 407.791 142.222V142.18C407.791 140.625 409.054 139.362 410.608 139.362H413.065C413.814 137.223 415.577 135.515 417.867 134.918L424.266 133.224L426.459 142.014C426.681 142.569 426.154 143.18 425.557 143.18Z" fill="#E57281"/>
<path d="M413.329 145.957C413.037 149.012 416.091 151.192 418.978 151.192" stroke="#9A3B82" stroke-miterlimit="10" stroke-linecap="round"/>
<path d="M412.205 142.694C412.205 141.611 411.33 140.736 410.248 140.736" stroke="#9A3B82" stroke-miterlimit="10" stroke-linecap="round"/>
<path d="M423.198 140.708C423.481 140.708 423.711 140.23 423.711 139.639C423.711 139.049 423.481 138.57 423.198 138.57C422.914 138.57 422.684 139.049 422.684 139.639C422.684 140.23 422.914 140.708 423.198 140.708Z" fill="#9A3B82"/>
<path d="M420.977 137.39C420.977 137.39 422.684 136.084 425.127 136.084" stroke="#9A3B82" stroke-miterlimit="10" stroke-linecap="round"/>
<path d="M414.37 240.894C414.37 240.894 431.373 241.63 437.355 227.98L434.191 222.19L424.738 225.828L414.37 240.894Z" fill="white" stroke="#FE5244" stroke-miterlimit="10"/>
<path d="M427.986 157.373C427.167 157.442 426.418 157.804 425.863 158.359C425.252 158.97 424.863 159.817 424.863 160.761V229.176C424.863 235.702 419.575 240.993 413.051 240.993H386.832C379.781 240.993 374.34 234.869 375.09 227.912V227.899L384.528 162.955C385 159.747 387.734 157.373 390.982 157.373H427.986V157.373Z" fill="#FE5244" stroke="#FE5244" stroke-miterlimit="10"/>
<path d="M425.35 157.371C424.532 157.441 423.782 157.802 423.227 158.357C422.713 158.871 422.366 159.537 422.269 160.287C422.255 160.44 422.241 160.593 422.241 160.746L421.686 165.98L415.024 229.16C415.024 235.687 409.735 240.977 403.212 240.977H386.847C379.796 240.977 374.355 234.854 375.105 227.897V227.883L379.366 198.529L384.543 162.939C384.585 162.634 384.654 162.329 384.738 162.023C385.543 159.288 388.069 157.357 390.984 157.357H425.35V157.371Z" fill="white" stroke="#FE5244" stroke-miterlimit="10"/>
<path d="M419.506 170.993L417.021 189.642C416.202 193.46 413.232 195.502 408.929 196.196L379.503 200.473L383.792 170.979H419.506V170.993Z" fill="#FFCF2D"/>
<path d="M424.294 157.371H423.559C422.226 157.357 421.06 158.302 420.797 159.621L416.466 187.573C415.647 191.391 412.274 194.127 408.374 194.127H381.294C378.018 194.127 375.576 191.1 376.283 187.892L381.502 164.175C382.377 160.204 385.902 157.371 389.969 157.371H424.294Z" fill="#FE5244" stroke="#FE5244" stroke-miterlimit="10"/>
<path d="M401.975 201.903L408.874 159.704C409.013 158.857 409.748 158.218 410.609 158.218C411.691 158.218 412.524 159.19 412.344 160.273L405.445 202.472C405.307 203.319 404.571 203.958 403.71 203.958C402.628 203.958 401.795 202.986 401.975 201.903Z" fill="white" stroke="#FE5244" stroke-miterlimit="10"/>
<path d="M386.554 201.903L393.453 159.704C393.592 158.857 394.327 158.218 395.188 158.218C396.27 158.218 397.103 159.19 396.923 160.273L390.024 202.472C389.886 203.319 389.15 203.958 388.289 203.958C387.207 203.958 386.374 202.986 386.554 201.903Z" fill="white" stroke="#FE5244" stroke-miterlimit="10"/>
<path d="M431.665 160.968L424.877 160.995V160.759C424.877 159.815 425.252 158.968 425.877 158.357C426.432 157.802 427.168 157.441 428 157.371H428.556C430.263 157.51 431.609 158.954 431.665 160.968Z" fill="white" stroke="#FE5244" stroke-miterlimit="10"/>
<path d="M474.984 255.668L480.703 270.429C481.619 272.803 480.287 275.442 477.844 276.122L465.282 279.566C464.519 279.774 463.714 279.594 463.117 279.08L461.84 277.969L464.449 277.275C465.602 276.969 466.379 275.9 466.323 274.706L466.032 271.762C465.976 270.443 464.907 269.388 463.589 269.346H463.728C462.131 269.29 460.577 268.304 459.952 266.833L457.954 261.514L474.984 255.668Z" fill="#E57281"/>
<path d="M462.103 278.261L464.157 277.705C465.309 277.4 466.086 276.469 466.031 275.275L465.878 272.054C465.823 270.735 464.754 269.679 463.435 269.638C461.839 269.582 460.423 268.596 459.799 267.124L457.661 262.084" stroke="white" stroke-miterlimit="10" stroke-linecap="round"/>
<path d="M468.82 278.233C470.292 277.844 471.291 276.483 471.222 274.956L471.027 270.845" stroke="white" stroke-miterlimit="10" stroke-linecap="round"/>
<path d="M474.137 276.858C475.608 276.469 476.607 275.109 476.538 273.581L476.344 269.471" stroke="white" stroke-miterlimit="10" stroke-linecap="round"/>
<path d="M426.584 194.127L429.943 211.706C430.512 214.706 431.567 217.608 433.052 220.274L456.232 262.125L477.51 254.794" stroke="white" stroke-miterlimit="10"/>
<path d="M440.644 233.993L433.052 220.274C431.775 217.955 430.817 215.483 430.207 212.914C430.928 212.678 431.678 212.512 432.469 212.442C438.465 211.915 443.781 216.955 444.35 223.69C444.683 227.772 443.198 231.535 440.644 233.993Z" fill="white"/>
</g>
<defs>
<linearGradient id="paint0_linear" x1="976.859" y1="-21.1637" x2="936.255" y2="-191.479" gradientUnits="userSpaceOnUse">
<stop stop-color="#4CBBBF"/>
<stop offset="0.630208" stop-color="#D1EDEE"/>
</linearGradient>
<clipPath id="clip0">
<rect width="1600" height="400" fill="white"/>
</clipPath>
</defs>
</svg>
