<?xml version="1.0"?>
<svg xmlns="http://www.w3.org/2000/svg" xmlns:xlink="http://www.w3.org/1999/xlink" xmlns:svgjs="http://svgjs.com/svgjs" version="1.1" width="512" height="512" x="0" y="0" viewBox="0 0 512 512" style="enable-background:new 0 0 512 512" xml:space="preserve" class=""><g><g xmlns="http://www.w3.org/2000/svg"><path d="m178.797 370.726v21.046c0 4.063 3.293 7.356 7.356 7.356h272.252c4.062 0 7.356-3.293 7.356-7.356v-21.046c0-4.063-3.293-7.356-7.356-7.356h-272.252c-4.062.001-7.356 3.294-7.356 7.356z" fill="#c5d3dd" data-original="#c5d3dd" style=""/><path d="m178.797 370.726v21.046c0 4.063 3.293 7.356 7.356 7.356h203.681c4.063 0 7.356-3.293 7.356-7.356v-21.046c0-4.063-3.293-7.356-7.356-7.356h-203.681c-4.062.001-7.356 3.294-7.356 7.356z" fill="#ffcf2d" data-original="#fe9738" style="" class=""/><path d="m46.239 370.368v21.763c0 3.865 3.133 6.997 6.997 6.997h74.456c3.865 0 6.997-3.133 6.997-6.997v-21.763c0-3.865-3.133-6.997-6.997-6.997h-74.456c-3.864 0-6.997 3.132-6.997 6.997z" fill="#4cbbbf" data-original="#0ed2b3" style="" class=""/><path d="m178.797 441.94v21.046c0 4.062 3.293 7.356 7.356 7.356h272.252c4.062 0 7.356-3.293 7.356-7.356v-21.046c0-4.062-3.293-7.356-7.356-7.356h-272.252c-4.062.001-7.356 3.294-7.356 7.356z" fill="#c5d3dd" data-original="#c5d3dd" style=""/><path d="m178.797 441.94v21.046c0 4.062 3.293 7.356 7.356 7.356h158.46c4.063 0 7.356-3.293 7.356-7.356v-21.046c0-4.062-3.293-7.356-7.356-7.356h-158.46c-4.062.001-7.356 3.294-7.356 7.356z" fill="#ffcf2d" data-original="#fe9738" style="" class=""/><path d="m46.239 441.582v21.763c0 3.865 3.133 6.997 6.997 6.997h74.456c3.865 0 6.997-3.133 6.997-6.997v-21.763c0-3.865-3.133-6.997-6.997-6.997h-74.456c-3.864 0-6.997 3.132-6.997 6.997z" fill="#66b0f0" data-original="#fe7ab6" style="" class=""/><path d="m274.812 512c-4.143 0-7.5-3.357-7.5-7.5v-183.835c0-4.143 3.357-7.5 7.5-7.5s7.5 3.357 7.5 7.5v183.835c0 4.143-3.358 7.5-7.5 7.5z" fill="#596c76" data-original="#596c76" style="" class=""/><path d="m289.54 284.658h-29.457c-6.099 0-11.061 4.962-11.061 11.061v27.635c0 3.283 1.444 6.375 3.962 8.481l10.848 9.079c3.181 2.663 7.08 3.994 10.979 3.994s7.8-1.332 10.98-3.994l10.847-9.078c2.518-2.107 3.962-5.199 3.962-8.482v-27.635c.001-6.099-4.961-11.061-11.06-11.061z" fill="#ff3322" data-original="#01c0fa" style="" class=""/><path d="m437.579 253.901h-363.159c-15.564 0-28.182-12.617-28.182-28.182v-190.037c.001-15.564 12.618-28.182 28.183-28.182h363.159c15.564 0 28.182 12.618 28.182 28.182v190.038c-.001 15.564-12.618 28.181-28.183 28.181z" fill="#e8edf2" data-original="#e8edf2" style="" class=""/><path d="m437.579 7.5h-24c15.564 0 28.182 12.618 28.182 28.182v190.038c0 15.564-12.617 28.182-28.182 28.182h24c15.564 0 28.182-12.617 28.182-28.182v-190.038c0-15.564-12.617-28.182-28.182-28.182z" fill="#c5d3dd" data-original="#c5d3dd" style=""/><path d="m437.579 261.401h-363.158c-19.676 0-35.683-16.007-35.683-35.682v-190.037c0-19.675 16.007-35.682 35.683-35.682h363.158c19.676 0 35.683 16.007 35.683 35.682v190.038c0 19.675-16.007 35.681-35.683 35.681zm-363.158-246.401c-11.404 0-20.683 9.277-20.683 20.682v190.038c0 11.404 9.278 20.682 20.683 20.682h363.158c11.404 0 20.683-9.277 20.683-20.682v-190.038c0-11.404-9.278-20.682-20.683-20.682z" fill="#4cbbbf" data-original="#0ed2b3" style="" class=""/><ellipse cx="368.232" cy="122.769" fill="#ff3322" rx="34.674" ry="34.674" transform="matrix(.999 -.038 .038 .999 -4.445 14.239)" data-original="#01c0fa" style="" class=""/><path d="m386.823 93.507c1.827 4.22 2.845 8.872 2.845 13.763 0 19.15-15.524 34.674-34.674 34.674-6.843 0-13.217-1.99-18.591-5.412 5.327 12.302 17.57 20.912 31.829 20.912 19.15 0 34.674-15.524 34.674-34.674 0-12.308-6.417-23.11-16.083-29.263z" fill="#e53426" data-original="#0290cf" style="" class=""/><g fill="#596c76"><path d="m301.644 122.285c4.143 0 7.5-3.357 7.5-7.5s-3.357-7.5-7.5-7.5c-28.192 0-55.248 11.928-74.413 32.368-10.978-18.852-26.265-34.895-44.741-46.794-22.29-14.357-48.147-21.946-74.777-21.946-4.143 0-7.5 3.357-7.5 7.5s3.357 7.5 7.5 7.5c23.743 0 46.792 6.763 66.655 19.557 19.582 12.614 35.012 30.514 44.709 50.788 2.403 4.986 9.311 5.77 12.716 1.283 17.521-23.205 43.612-35.256 69.851-35.256z" fill="#596c76" data-original="#596c76" style="" class=""/><path d="m301.644 138.541c-14.142 0-27.802 4.172-39.51 12.07-14.045 9.497-24.222 23.684-28.654 39.944-1.089 3.996 1.268 8.119 5.264 9.209.66.18 1.324.266 1.978.266 3.299 0 6.321-2.193 7.231-5.529 3.489-12.802 11.51-23.976 22.577-31.459 9.214-6.216 19.973-9.501 31.114-9.501 4.143 0 7.5-3.357 7.5-7.5s-3.358-7.5-7.5-7.5z" fill="#596c76" data-original="#596c76" style="" class=""/><path d="m177.11 127.782c-19.347-16.517-43.993-25.613-69.398-25.613-4.143 0-7.5 3.357-7.5 7.5s3.357 7.5 7.5 7.5c21.838 0 43.025 7.82 59.659 22.021 16.454 14.047 27.487 33.434 31.068 54.59.619 3.66 3.793 6.249 7.386 6.249.415 0 .837-.034 1.261-.106 4.084-.691 6.834-4.563 6.143-8.646-4.166-24.618-16.994-47.168-36.119-63.495z" fill="#596c76" data-original="#596c76" style="" class=""/></g></g></g></svg>
