<svg width="1600" height="640" viewBox="0 0 1600 640" fill="none" xmlns="http://www.w3.org/2000/svg">
<g clip-path="url(#clip0)">
<rect width="1600" height="640" fill="#F4FFFF" fill-opacity="0.5"/>
<path d="M839.5 -91C451.1 235.4 838.334 580 1080.5 711.5L1799 637L1781.5 -114C1629.33 -242.333 1227.9 -417.4 839.5 -91Z" fill="#D1EDEE" fill-opacity="0.5"/>
<path d="M486.693 -238.096C453.213 268.136 1184.44 64.6483 1447 -18.9999L1676.33 -426.195L1122.41 -933.62C924.456 -912.708 520.172 -744.328 486.693 -238.096Z" fill="url(#paint0_linear)" fill-opacity="0.5"/>
<path fill-rule="evenodd" clip-rule="evenodd" d="M966 104C961.029 104 957 108.029 957 113V180C957 184.971 961.029 189 966 189H1110.58L1124.4 200.11C1125.08 200.651 1126.07 200.142 1126.03 199.28L1125 179.15V113C1125 108.029 1120.97 104 1116 104H966Z" fill="#4CBBBF"/>
<mask id="path-4-inside-1" fill="white">
<path fill-rule="evenodd" clip-rule="evenodd" d="M961 95C956.029 95 952 99.0294 952 104V171C952 175.971 956.029 180 961 180H1105.58L1119.4 191.11C1120.08 191.651 1121.07 191.142 1121.03 190.28L1120 170.15V104C1120 99.0294 1115.97 95 1111 95H961Z"/>
</mask>
<path fill-rule="evenodd" clip-rule="evenodd" d="M961 95C956.029 95 952 99.0294 952 104V171C952 175.971 956.029 180 961 180H1105.58L1119.4 191.11C1120.08 191.651 1121.07 191.142 1121.03 190.28L1120 170.15V104C1120 99.0294 1115.97 95 1111 95H961Z" fill="white"/>
<path d="M1105.58 180L1106.21 179.221L1105.93 179H1105.58V180ZM1119.4 191.11L1118.78 191.889L1118.78 191.889L1119.4 191.11ZM1121.03 190.28L1120.03 190.331L1120.03 190.331L1121.03 190.28ZM1120 170.15H1119V170.176L1119 170.201L1120 170.15ZM953 104C953 99.5817 956.582 96 961 96V94C955.477 94 951 98.4772 951 104H953ZM953 171V104H951V171H953ZM961 179C956.582 179 953 175.418 953 171H951C951 176.523 955.477 181 961 181V179ZM1105.58 179H961V181H1105.58V179ZM1120.03 190.331L1106.21 179.221L1104.96 180.779L1118.78 191.889L1120.03 190.331ZM1120.03 190.331L1120.03 190.331L1118.78 191.889C1120.12 192.971 1122.11 191.954 1122.03 190.229L1120.03 190.331ZM1119 170.201L1120.03 190.331L1122.03 190.229L1121 170.099L1119 170.201ZM1119 104V170.15H1121V104H1119ZM1111 96C1115.42 96 1119 99.5817 1119 104H1121C1121 98.4772 1116.52 94 1111 94V96ZM961 96H1111V94H961V96Z" fill="#4CBBBF" mask="url(#path-4-inside-1)"/>
<path d="M981.548 121.4V126.602H975.032V121.4H972.692V134H975.032V128.6H981.548V134H983.888V121.4H981.548ZM994.104 124.388V129.248C994.104 131.174 993.042 132.146 991.476 132.146C990.054 132.146 989.226 131.318 989.226 129.572V124.388H986.976V129.878C986.976 132.776 988.65 134.126 991.116 134.126C992.358 134.126 993.492 133.658 994.212 132.776V134H996.354V124.388H994.104ZM1003.21 122.336C1003.67 122.336 1004.11 122.498 1004.45 122.732L1005.08 121.04C1004.57 120.68 1003.82 120.518 1003.04 120.518C1000.81 120.518 999.606 121.832 999.606 123.848V124.46H998.022V126.26H999.606V134H1001.86V126.26H1004.43V124.46H1001.78V123.884C1001.78 122.858 1002.27 122.336 1003.21 122.336ZM1011.09 131.876C1010.75 132.146 1010.3 132.272 1009.83 132.272C1008.97 132.272 1008.5 131.768 1008.5 130.832V126.26H1011.07V124.46H1008.5V122.264H1006.25V124.46H1004.67V126.26H1006.25V130.886C1006.25 133.01 1007.46 134.126 1009.56 134.126C1010.37 134.126 1011.18 133.91 1011.72 133.478L1011.09 131.876ZM1018.49 131.876C1018.15 132.146 1017.7 132.272 1017.23 132.272C1016.37 132.272 1015.9 131.768 1015.9 130.832V126.26H1018.48V124.46H1015.9V122.264H1013.65V124.46H1012.07V126.26H1013.65V130.886C1013.65 133.01 1014.86 134.126 1016.96 134.126C1017.77 134.126 1018.58 133.91 1019.12 133.478L1018.49 131.876ZM1021.87 134.126C1022.68 134.126 1023.35 133.496 1023.35 132.632C1023.35 131.732 1022.68 131.138 1021.87 131.138C1021.06 131.138 1020.39 131.732 1020.39 132.632C1020.39 133.496 1021.06 134.126 1021.87 134.126ZM1026.26 134.126C1027.07 134.126 1027.74 133.496 1027.74 132.632C1027.74 131.732 1027.07 131.138 1026.26 131.138C1025.45 131.138 1024.79 131.732 1024.79 132.632C1024.79 133.496 1025.45 134.126 1026.26 134.126ZM1040.24 124.28C1038.93 124.28 1037.81 124.73 1037.06 125.648V124.388H1034.91V137.492H1037.16V132.83C1037.94 133.712 1039.02 134.126 1040.24 134.126C1043.05 134.126 1045.12 132.182 1045.12 129.194C1045.12 126.224 1043.05 124.28 1040.24 124.28ZM1039.99 132.2C1038.37 132.2 1037.13 131.03 1037.13 129.194C1037.13 127.358 1038.37 126.188 1039.99 126.188C1041.61 126.188 1042.83 127.358 1042.83 129.194C1042.83 131.03 1041.61 132.2 1039.99 132.2ZM1054.31 124.388V129.248C1054.31 131.174 1053.25 132.146 1051.68 132.146C1050.26 132.146 1049.43 131.318 1049.43 129.572V124.388H1047.18V129.878C1047.18 132.776 1048.86 134.126 1051.32 134.126C1052.56 134.126 1053.7 133.658 1054.42 132.776V134H1056.56V124.388H1054.31ZM1062.48 134.126C1065.18 134.126 1066.83 132.956 1066.83 131.156C1066.83 127.394 1060.89 129.122 1060.89 127.178C1060.89 126.548 1061.54 126.098 1062.91 126.098C1063.83 126.098 1064.74 126.278 1065.66 126.818L1066.53 125.108C1065.66 124.586 1064.2 124.28 1062.93 124.28C1060.33 124.28 1058.7 125.468 1058.7 127.286C1058.7 131.12 1064.64 129.392 1064.64 131.228C1064.64 131.894 1064.04 132.29 1062.62 132.29C1061.41 132.29 1060.12 131.894 1059.27 131.336L1058.41 133.046C1059.27 133.658 1060.87 134.126 1062.48 134.126ZM1069.9 122.804C1070.75 122.804 1071.34 122.192 1071.34 121.4C1071.34 120.662 1070.73 120.104 1069.9 120.104C1069.07 120.104 1068.46 120.698 1068.46 121.454C1068.46 122.21 1069.07 122.804 1069.9 122.804ZM1068.77 134H1071.02V124.388H1068.77V134ZM1079.43 124.28C1078.02 124.28 1076.85 124.748 1076.11 125.63V124.388H1073.97V134H1076.22V129.14C1076.22 127.214 1077.3 126.242 1078.9 126.242C1080.34 126.242 1081.19 127.07 1081.19 128.78V134H1083.44V128.492C1083.44 125.594 1081.73 124.28 1079.43 124.28ZM1093.78 124.388V125.666C1092.99 124.712 1091.8 124.28 1090.45 124.28C1087.7 124.28 1085.59 126.116 1085.59 128.906C1085.59 131.696 1087.7 133.568 1090.45 133.568C1091.75 133.568 1092.88 133.154 1093.67 132.29V132.794C1093.67 134.738 1092.74 135.71 1090.61 135.71C1089.28 135.71 1087.91 135.26 1087.07 134.558L1086.06 136.25C1087.16 137.15 1088.94 137.618 1090.74 137.618C1094.1 137.618 1095.92 136.034 1095.92 132.542V124.388H1093.78ZM1090.79 131.66C1089.08 131.66 1087.86 130.544 1087.86 128.906C1087.86 127.286 1089.08 126.188 1090.79 126.188C1092.48 126.188 1093.71 127.286 1093.71 128.906C1093.71 130.544 1092.48 131.66 1090.79 131.66ZM984.608 146.28C983.078 146.28 981.782 146.892 981.008 147.882C980.342 146.802 979.172 146.28 977.768 146.28C976.454 146.28 975.338 146.748 974.618 147.612V146.388H972.476V156H974.726V151.122C974.726 149.214 975.734 148.242 977.228 148.242C978.596 148.242 979.388 149.07 979.388 150.78V156H981.638V151.122C981.638 149.214 982.664 148.242 984.14 148.242C985.508 148.242 986.3 149.07 986.3 150.78V156H988.55V150.492C988.55 147.594 986.93 146.28 984.608 146.28ZM995.097 146.28C993.549 146.28 992.055 146.676 991.029 147.468L991.911 149.106C992.631 148.512 993.747 148.152 994.827 148.152C996.429 148.152 997.221 148.926 997.221 150.24V150.384H994.737C991.821 150.384 990.741 151.644 990.741 153.246C990.741 154.92 992.127 156.126 994.323 156.126C995.763 156.126 996.807 155.658 997.347 154.83V156H999.471V150.366C999.471 147.594 997.869 146.28 995.097 146.28ZM994.791 154.488C993.639 154.488 992.955 153.966 992.955 153.156C992.955 152.454 993.369 151.878 994.899 151.878H997.221V152.994C996.843 153.984 995.889 154.488 994.791 154.488ZM1007.51 153.876C1007.16 154.146 1006.71 154.272 1006.25 154.272C1005.38 154.272 1004.91 153.768 1004.91 152.832V148.26H1007.49V146.46H1004.91V144.264H1002.66V146.46H1001.08V148.26H1002.66V152.886C1002.66 155.01 1003.87 156.126 1005.98 156.126C1006.79 156.126 1007.6 155.91 1008.14 155.478L1007.51 153.876ZM1018.71 151.248C1018.71 148.242 1016.66 146.28 1013.85 146.28C1010.99 146.28 1008.88 148.332 1008.88 151.194C1008.88 154.056 1010.97 156.126 1014.19 156.126C1015.85 156.126 1017.2 155.586 1018.06 154.56L1016.85 153.174C1016.17 153.876 1015.32 154.218 1014.24 154.218C1012.57 154.218 1011.4 153.318 1011.13 151.914H1018.67C1018.69 151.698 1018.71 151.428 1018.71 151.248ZM1013.85 148.08C1015.32 148.08 1016.39 149.034 1016.57 150.42H1011.11C1011.33 149.016 1012.39 148.08 1013.85 148.08ZM1023.01 147.792V146.388H1020.87V156H1023.12V151.338C1023.12 149.376 1024.2 148.368 1025.91 148.368C1026.07 148.368 1026.23 148.386 1026.43 148.422V146.28C1024.83 146.28 1023.66 146.784 1023.01 147.792ZM1029.47 144.804C1030.32 144.804 1030.91 144.192 1030.91 143.4C1030.91 142.662 1030.3 142.104 1029.47 142.104C1028.65 142.104 1028.03 142.698 1028.03 143.454C1028.03 144.21 1028.65 144.804 1029.47 144.804ZM1028.34 156H1030.59V146.388H1028.34V156ZM1048.17 156H1050.61L1044.93 143.4H1042.62L1036.95 156H1039.36L1040.61 153.084H1046.91L1048.17 156ZM1041.4 151.248L1043.76 145.74L1046.13 151.248H1041.4ZM1056.12 156.18C1059.58 156.18 1061.22 154.452 1061.22 152.436C1061.22 147.81 1053.75 149.556 1053.75 146.874C1053.75 145.92 1054.54 145.164 1056.48 145.164C1057.58 145.164 1058.82 145.488 1059.96 146.154L1060.69 144.336C1059.6 143.616 1058.01 143.22 1056.5 143.22C1053.04 143.22 1051.42 144.948 1051.42 146.982C1051.42 151.662 1058.91 149.88 1058.91 152.598C1058.91 153.534 1058.08 154.236 1056.12 154.236C1054.57 154.236 1052.97 153.66 1051.96 152.85L1051.15 154.668C1052.2 155.568 1054.16 156.18 1056.12 156.18ZM1063.54 156H1069.04C1073.13 156 1075.92 153.48 1075.92 149.7C1075.92 145.92 1073.13 143.4 1069.04 143.4H1063.54V156ZM1065.88 154.02V145.38H1068.94C1071.74 145.38 1073.56 147.09 1073.56 149.7C1073.56 152.31 1071.74 154.02 1068.94 154.02H1065.88Z" fill="#484848"/>
<path d="M1156.56 638.855H1376.49" stroke="#FFCF2D" stroke-width="2" stroke-miterlimit="10" stroke-linecap="round"/>
<path d="M1266.45 444.192V530.394C1266.45 556.933 1280.2 581.574 1302.77 595.502L1334.54 615.106" stroke="#66B0F0" stroke-width="2" stroke-miterlimit="10" stroke-linecap="round" stroke-linejoin="round"/>
<path d="M1249.24 444.192V530.394C1249.24 556.933 1235.49 581.574 1212.92 595.502L1181.15 615.106" stroke="#66B0F0" stroke-width="2" stroke-miterlimit="10" stroke-linecap="round" stroke-linejoin="round"/>
<path d="M1237.68 444.192H1276.42C1279.85 444.192 1282.62 441.422 1282.62 437.993V428.21H1231.49V437.993C1231.49 441.422 1234.25 444.192 1237.68 444.192Z" fill="white" stroke="#66B0F0" stroke-width="2" stroke-miterlimit="10"/>
<path d="M1335.97 638.855C1328.11 638.855 1321.74 632.482 1321.74 624.617C1321.74 616.753 1328.11 610.379 1335.97 610.379C1343.83 610.379 1350.2 616.753 1350.2 624.617C1350.2 632.482 1343.83 638.855 1335.97 638.855Z" fill="white" stroke="#FFCF2D" stroke-width="2" stroke-miterlimit="10"/>
<path d="M1180.84 638.855C1172.98 638.855 1166.61 632.482 1166.61 624.617C1166.61 616.753 1172.98 610.379 1180.84 610.379C1188.7 610.379 1195.07 616.753 1195.07 624.617C1195.07 632.482 1188.7 638.855 1180.84 638.855Z" fill="white" stroke="#FFCF2D" stroke-width="2" stroke-miterlimit="10"/>
<path d="M1180.84 635.853C1174.64 635.853 1169.61 630.816 1169.61 624.617C1169.61 618.418 1174.64 613.382 1180.84 613.382C1187.04 613.382 1192.07 618.418 1192.07 624.617C1192.07 630.816 1187.04 635.853 1180.84 635.853Z" fill="white" stroke="#FFCF2D" stroke-width="2" stroke-miterlimit="10"/>
<path d="M1335.91 635.853C1329.72 635.853 1324.68 630.816 1324.68 624.617C1324.68 618.418 1329.72 613.382 1335.91 613.382C1342.11 613.382 1347.14 618.418 1347.14 624.617C1347.14 630.816 1342.11 635.853 1335.91 635.853Z" fill="white" stroke="#FFCF2D" stroke-width="2" stroke-miterlimit="10"/>
<path d="M1236.93 572.043C1236.93 572.043 1255.36 558.522 1278.8 572.043" stroke="#66B0F0" stroke-width="2" stroke-miterlimit="10" stroke-linecap="round" stroke-linejoin="round"/>
<path d="M1266 420.481L1248.19 602.824H1303.08L1348.21 438.748C1356.51 411.977 1338.64 384.741 1310.82 384.683H1306.95C1286.35 384.624 1268.89 399.908 1266 420.481Z" fill="#31A1A9"/>
<path d="M1258.92 602.824H1287.84L1283.29 617.721C1277.58 612.026 1269.63 607.919 1260.93 607.396C1260.12 607.338 1259.33 607.318 1258.53 607.318L1258.92 602.824Z" fill="#E57281"/>
<path d="M1292.1 638.739C1293.61 624.714 1278.82 608.481 1260.91 607.376C1243 606.272 1231.95 618.108 1231.08 632.172C1230.94 634.303 1230.75 636.899 1231.21 638.797L1292.1 638.739Z" fill="white" stroke="#FE5244" stroke-width="2" stroke-miterlimit="10"/>
<path d="M1231.6 633.644L1292.1 634.361" stroke="#FE5244" stroke-width="2" stroke-miterlimit="10"/>
<path d="M1281.61 602.824L1327.4 574.93L1225.02 403.318C1212.07 382.765 1179.19 376.411 1158.46 389.041C1134.55 403.609 1129.87 436.366 1148.72 457.054L1281.61 602.824Z" fill="#3FB1B5"/>
<path d="M1281.8 602.049L1327.78 574.542L1225.21 403.318C1212.26 382.765 1179.39 376.411 1158.65 389.041C1134.74 403.609 1130.06 436.366 1148.92 457.054L1281.8 602.049Z" stroke="white" stroke-width="2" stroke-miterlimit="10"/>
<path d="M1326.68 573.709C1324.65 570.339 1312.74 573.767 1300.08 581.4C1287.42 589.013 1278.84 598.195 1280.87 601.565C1282.91 604.936 1294.77 601.236 1307.44 593.623C1320.08 586.01 1328.69 577.099 1326.68 573.709Z" fill="#73325A"/>
<path d="M1323.89 595.521L1302.52 608.965L1296.48 602.185L1294.64 600.112L1286.97 591.511C1290.26 588.141 1294.77 584.576 1300.1 581.399C1304.4 578.823 1308.64 576.77 1312.47 575.375L1318.45 585.894L1319.77 588.199L1323.89 595.521Z" fill="#E57281"/>
<path d="M1357.62 610.108L1304.38 638.836C1303.04 637.402 1301.9 635.717 1300.99 633.799C1300.21 632.191 1299.61 630.506 1299.15 628.801C1296.01 617.024 1300.45 603.522 1314.6 596.78C1327.09 590.833 1342.63 594.243 1351.61 602.069C1354.27 604.413 1356.36 607.144 1357.62 610.108Z" fill="white" stroke="#FE5244" stroke-width="2" stroke-miterlimit="10"/>
<path d="M1354.77 605.75L1301.51 634.477" stroke="#FE5244" stroke-width="2" stroke-miterlimit="10" stroke-linecap="round"/>
<path d="M1318.41 585.874C1315.35 588.431 1311.6 591.105 1307.4 593.623C1302.91 596.335 1298.49 598.543 1294.6 600.112L1286.55 591.511C1289.84 588.141 1294.74 584.577 1300.06 581.4C1304.36 578.823 1308.6 576.576 1312.43 575.181L1318.41 585.874Z" fill="#9A3B82"/>
<path d="M1325.5 570.726C1323.47 567.355 1310.61 570.707 1297.74 578.455C1284.86 586.204 1276.69 595.289 1278.72 598.66" stroke="white" stroke-width="2" stroke-miterlimit="10"/>
<path d="M1503.73 428.21C1508.78 428.21 1512.88 424.104 1512.88 419.048V383.985C1512.88 378.929 1508.78 374.823 1503.73 374.823H994.481C989.428 374.823 985.324 378.929 985.324 383.985V419.048C985.324 424.104 989.428 428.21 994.481 428.21H1503.73Z" fill="#9A3B82"/>
<path d="M1503.57 366.88H994.617C989.564 366.88 985.459 370.987 985.459 376.043V411.105C985.459 416.161 989.564 420.268 994.617 420.268H1503.57C1508.62 420.268 1512.73 416.161 1512.73 411.105V376.043C1512.73 370.987 1508.62 366.88 1503.57 366.88Z" fill="white" stroke="#FFCF2D" stroke-width="2" stroke-miterlimit="10"/>
<path d="M1477.07 420.307V638.933" stroke="#FFCF2D" stroke-width="2" stroke-miterlimit="10" stroke-linecap="round"/>
<path d="M1032.77 420.307V638.933" stroke="#FFCF2D" stroke-width="2" stroke-miterlimit="10" stroke-linecap="round"/>
<path d="M1016.05 584.519L1015.23 585.042L985.691 539.499L976.805 540.177C974.908 540.332 973.398 538.608 973.785 536.729C974.192 534.87 976.263 533.901 977.947 534.831L985.246 538.841L979.883 530.55L970.997 531.247C969.1 531.402 967.59 529.659 967.996 527.799C968.403 525.939 970.474 524.971 972.159 525.901L979.458 529.891L974.095 521.6L965.209 522.298C963.311 522.453 961.801 520.709 962.208 518.849C962.614 516.99 964.686 516.021 966.37 516.951L973.669 520.961L970.436 515.982L964.434 510.849C962.982 509.609 963.137 507.323 964.725 506.277C966.331 505.231 968.48 506.026 969.022 507.866L971.249 515.44L974.579 520.573L973.882 512.05C973.727 510.152 975.45 508.641 977.309 509.028C979.167 509.416 980.135 511.508 979.225 513.174L974.927 521.116L980.367 529.504L979.67 521C979.516 519.101 981.239 517.59 983.097 517.978C984.956 518.365 985.924 520.457 985.014 522.123L980.716 530.065L986.156 538.453L985.459 529.949C985.304 528.051 987.027 526.521 988.886 526.927C990.744 527.315 991.712 529.407 990.802 531.073L986.505 539.015L1016.05 584.519Z" fill="#9A3B82"/>
<path d="M1065.69 568.421C1051.5 597.032 1032.33 616.927 1021 615.551C1020.07 615.435 1019.2 615.183 1018.39 614.777C1007.63 609.43 1011.34 580.005 1026.72 549.049C1033.3 535.78 1040.94 524.409 1048.38 516.137C1058.31 505.115 1067.86 499.633 1074.01 502.694C1084.78 508.04 1081.04 537.465 1065.69 568.421Z" fill="#9A3B82"/>
<path d="M1047.91 545.814C1044.76 582.078 1033.16 611.329 1021.02 615.552C1020.09 615.435 1019.22 615.183 1018.41 614.777C1007.65 609.43 1011.36 580.005 1026.73 549.049C1033.32 535.78 1040.96 524.409 1048.4 516.137C1048.94 525.261 1048.82 535.315 1047.91 545.814Z" fill="#FFCF2D"/>
<path d="M1074.01 502.694L1021.02 615.552" stroke="#FFCF2D" stroke-width="2" stroke-miterlimit="10"/>
<path d="M1073 586.378L1065.51 588.896L1060.52 592.403L1069 591.395C1070.89 591.163 1072.46 592.829 1072.15 594.708C1071.82 596.587 1069.79 597.633 1068.07 596.781L1059.98 592.771L1051.79 598.524L1060.27 597.517C1062.16 597.284 1063.73 598.95 1063.42 600.829C1063.09 602.708 1061.06 603.754 1059.34 602.902L1051.24 598.892L1043.07 604.645L1051.55 603.638C1053.45 603.406 1055.02 605.072 1054.69 606.951C1054.36 608.83 1052.33 609.876 1050.61 609.023L1042.51 605.013L1027.55 615.532H1025.86L1041.99 604.2L1040.98 595.347C1040.77 593.449 1042.44 591.88 1044.31 592.209C1046.19 592.538 1047.22 594.592 1046.37 596.296L1042.63 603.754L1050.7 598.078L1049.7 589.226C1049.48 587.327 1051.15 585.758 1053.03 586.087C1054.9 586.417 1055.93 588.47 1055.08 590.175L1051.36 597.613L1059.43 591.938L1058.43 583.085C1058.21 581.187 1059.88 579.617 1061.76 579.947C1063.63 580.276 1064.66 582.329 1063.81 584.034L1060.07 591.492L1064.93 588.083L1069.83 581.884C1071.01 580.392 1073.31 580.45 1074.4 582.019C1075.54 583.589 1074.82 585.778 1073 586.378Z" fill="#FFCF2D"/>
<path d="M1012.27 614.041C1011.3 614.37 1010.28 614.602 1009.23 614.738C997.037 616.326 980.193 604.936 970.01 587.637C958.956 568.847 959.962 550.212 972.256 545.989C976.244 544.613 980.948 544.943 985.827 546.647C996.011 550.192 1007.05 559.684 1014.52 572.373C1025.55 591.182 1024.55 609.818 1012.27 614.041Z" fill="white" stroke="#FFCF2D" stroke-width="2" stroke-miterlimit="10"/>
<path d="M1012.27 614.041C1011.3 614.37 1010.28 614.603 1009.23 614.738C997.966 609.624 988.17 587.967 986.098 561.661C985.692 556.469 985.614 551.432 985.827 546.648C996.011 550.193 1007.05 559.685 1014.52 572.373C1025.55 591.183 1024.55 609.818 1012.27 614.041Z" fill="#FFCF2D"/>
<path d="M967.59 548.72L1009.21 614.738" stroke="#FFCF2D" stroke-width="2" stroke-miterlimit="10"/>
<path d="M1017.23 616.327C1030.7 616.327 1041.62 583.813 1041.62 543.704C1041.62 503.595 1030.7 471.08 1017.23 471.08C1003.76 471.08 992.835 503.595 992.835 543.704C992.835 583.813 1003.76 616.327 1017.23 616.327Z" fill="white" stroke="#FFCF2D" stroke-width="2" stroke-miterlimit="10"/>
<path d="M1017.23 471.06V616.326" stroke="#FFCF2D" stroke-width="2" stroke-miterlimit="10"/>
<path d="M1032.77 488.475L1017.23 509.319L1004.04 483.206" stroke="#FFCF2D" stroke-width="2" stroke-miterlimit="10" stroke-linecap="round"/>
<path d="M1037.83 506.142L1017.07 534.695L998.411 498.568" stroke="#FFCF2D" stroke-width="2" stroke-miterlimit="10" stroke-linecap="round"/>
<path d="M1041.06 526.52L1016.88 559.878L994.79 517.261" stroke="#FFCF2D" stroke-width="2" stroke-miterlimit="10" stroke-linecap="round"/>
<path d="M1042.57 553.718L1017 589.516L992.893 543.761" stroke="#FFCF2D" stroke-width="2" stroke-miterlimit="10" stroke-linecap="round"/>
<path d="M1053.39 638.933H981.006C975.431 638.933 970.9 634.4 970.9 628.821V625.663C970.9 620.084 975.431 615.552 981.006 615.552H1053.39C1058.97 615.552 1063.5 620.084 1063.5 625.663V628.821C1063.5 634.419 1058.97 638.933 1053.39 638.933Z" fill="white" stroke="#66B0F0" stroke-width="2" stroke-miterlimit="10"/>
<path d="M1479.55 387.24C1479.55 390.126 1477.24 392.47 1474.42 392.47H1395.56C1392.72 392.47 1390.43 390.126 1390.43 387.24C1390.43 384.353 1392.74 382.01 1395.56 382.01H1474.42C1477.24 382.01 1479.55 384.353 1479.55 387.24Z" fill="#FE5244"/>
<path d="M1446.27 332.767H1413.99V355.238H1476.33C1472.38 341.911 1460.15 332.767 1446.27 332.767Z" fill="white" stroke="#FFCF2D" stroke-width="2" stroke-miterlimit="10"/>
<path d="M1419.8 332.767V355.238L1406.44 355.258V332.767H1419.8Z" fill="#FFCF2D" stroke="#FFCF2D" stroke-width="2" stroke-miterlimit="10"/>
<path d="M1525.76 354.793L1476.33 355.238C1476.33 355.238 1488.7 338.463 1522.66 342.899C1522.66 342.899 1496.1 337.358 1469.15 342.899" stroke="#FFCF2D" stroke-width="2" stroke-miterlimit="10"/>
<path d="M1476.33 355.238C1476.33 355.238 1498 343.325 1524.4 349.098" stroke="#FFCF2D" stroke-width="2" stroke-miterlimit="10"/>
<path d="M1481.85 373.621C1481.85 375.733 1482.18 377.651 1482.7 379.065H1458.99C1457.77 379.065 1456.76 377.999 1456.76 376.702V370.561C1456.76 369.244 1457.75 368.198 1458.99 368.198H1482.7C1482.18 369.592 1481.85 371.51 1481.85 373.621Z" fill="#FFCF2D"/>
<path d="M1456.78 370.561V376.702C1456.78 378.019 1457.84 379.065 1459.14 379.065H1484.62V379.51C1484.62 380.595 1483.75 381.467 1482.66 381.467H1393.55C1392.46 381.467 1391.59 380.595 1391.59 379.51V367.733C1391.59 366.648 1392.46 365.776 1393.55 365.776H1482.66C1483.75 365.776 1484.62 366.648 1484.62 367.733V368.178H1459.14C1457.84 368.198 1456.78 369.244 1456.78 370.561Z" fill="white"/>
<path d="M1456.78 370.561V376.702C1456.78 378.019 1457.84 379.065 1459.14 379.065H1484.62V379.51C1484.62 380.595 1483.75 381.467 1482.66 381.467H1393.55C1392.46 381.467 1391.59 380.595 1391.59 379.51V367.733C1391.59 366.648 1392.46 365.776 1393.55 365.776H1482.66C1483.75 365.776 1484.62 366.648 1484.62 367.733V368.178H1459.14C1457.84 368.198 1456.78 369.244 1456.78 370.561Z" stroke="#FFCF2D" stroke-width="2" stroke-miterlimit="10"/>
<path d="M1423.58 396.674C1422.65 397.545 1422.07 399.134 1422.07 400.47C1422.07 403.124 1424.39 405.856 1427.25 405.856H1498.65C1498.65 407.096 1497.65 408.122 1496.39 408.122H1410.22C1407.91 408.122 1405.82 407.251 1404.31 405.856C1402.8 404.461 1401.85 402.524 1401.85 400.374C1401.85 396.093 1405.59 392.625 1410.22 392.625H1496.39C1497.63 392.625 1498.65 393.632 1498.65 394.891V395.298H1427.25C1425.8 395.279 1424.51 395.821 1423.58 396.674Z" fill="#FFCF2D"/>
<path d="M1493.48 395.279V405.662H1498.63V406.534H1427C1426.21 406.534 1425.43 406.379 1424.74 406.088C1423.98 405.778 1423.29 405.333 1422.72 404.752C1421.62 403.647 1420.94 402.136 1420.94 400.47C1420.94 397.119 1423.65 394.407 1427 394.407H1498.63V395.279H1493.48Z" fill="#FE5244"/>
<path d="M1495.48 395.279V405.662H1427.25C1424.39 405.662 1422.07 403.337 1422.07 400.471C1422.07 399.037 1422.65 397.739 1423.58 396.79C1424.51 395.86 1425.8 395.279 1427.24 395.279H1495.48Z" fill="white"/>
<path d="M1495.48 395.279V405.662" stroke="#FE5244" stroke-width="2" stroke-miterlimit="10"/>
<path d="M1436.76 402.64V411.299H1430.78V403.744C1430.78 401.943 1429.33 400.47 1427.51 400.47H1424.83V399.366H1433.49C1435.31 399.366 1436.76 400.838 1436.76 402.64Z" fill="#FE5244"/>
<path d="M1498.92 355.723H1397.21C1394.57 355.723 1392.44 357.854 1392.44 360.488C1392.46 363.103 1394.57 365.234 1397.21 365.234H1498.92C1501.56 365.234 1503.69 363.103 1503.69 360.469C1503.67 357.854 1501.54 355.723 1498.92 355.723Z" fill="#66B0F0"/>
<path d="M1475.85 365.253H1474.82C1474.94 365.563 1475.23 366.338 1475.87 366.338C1476.25 366.338 1478.15 366.048 1478.15 360.488C1478.15 358.512 1477.92 357.001 1477.45 355.974C1476.89 354.754 1476.16 354.618 1475.89 354.618C1475.23 354.618 1474.94 355.413 1474.82 355.723H1475.85C1475.89 355.645 1475.93 355.606 1475.94 355.587C1476.29 355.684 1477.22 356.652 1477.22 360.488C1477.22 364.323 1476.29 365.273 1475.94 365.389C1475.91 365.35 1475.87 365.311 1475.85 365.253Z" fill="#9A3B82"/>
<path d="M1484.25 365.253H1483.22C1483.34 365.563 1483.63 366.338 1484.27 366.338C1484.66 366.338 1486.55 366.048 1486.55 360.488C1486.55 358.512 1486.32 357.001 1485.86 355.974C1485.3 354.754 1484.56 354.618 1484.29 354.618C1483.63 354.618 1483.34 355.413 1483.22 355.723H1484.25C1484.29 355.645 1484.33 355.606 1484.35 355.587C1484.7 355.684 1485.62 356.652 1485.62 360.488C1485.62 364.323 1484.7 365.273 1484.35 365.389C1484.33 365.35 1484.29 365.311 1484.25 365.253Z" fill="#9A3B82"/>
<path d="M1492.67 365.253H1491.65C1491.76 365.563 1492.05 366.338 1492.69 366.338C1493.23 366.338 1494.98 365.912 1494.98 360.488C1494.98 355.045 1493.23 354.638 1492.69 354.638C1492.03 354.638 1491.74 355.432 1491.63 355.742H1492.65C1492.69 355.664 1492.73 355.626 1492.75 355.606C1493.14 355.703 1494.03 356.71 1494.03 360.507C1494.03 362.832 1493.7 364.033 1493.41 364.653C1493.17 365.156 1492.92 365.369 1492.75 365.408C1492.73 365.35 1492.71 365.311 1492.67 365.253Z" fill="#9A3B82"/>
<path d="M1450.58 365.253H1449.56C1449.67 365.563 1449.96 366.338 1450.6 366.338C1450.99 366.338 1452.89 366.047 1452.89 360.488C1452.89 355.045 1451.14 354.638 1450.6 354.638C1449.94 354.638 1449.65 355.432 1449.54 355.742H1450.56C1450.6 355.664 1450.64 355.626 1450.66 355.606C1451.05 355.703 1451.94 356.71 1451.94 360.507C1451.94 364.343 1451.01 365.292 1450.66 365.408C1450.66 365.35 1450.62 365.311 1450.58 365.253Z" fill="#9A3B82"/>
<path d="M1459 365.253H1457.98C1458.1 365.563 1458.39 366.338 1459.02 366.338C1459.39 366.338 1460.07 366.183 1460.59 365.098C1461.06 364.11 1461.31 362.561 1461.31 360.488C1461.31 358.415 1461.08 356.865 1460.59 355.877C1460.07 354.793 1459.39 354.638 1459.02 354.638C1458.37 354.638 1458.08 355.432 1457.96 355.742H1458.99C1459.02 355.664 1459.06 355.626 1459.08 355.606C1459.31 355.645 1459.55 355.897 1459.74 356.304C1460.01 356.885 1460.36 358.086 1460.36 360.507C1460.36 362.909 1460.03 364.11 1459.74 364.711C1459.55 365.118 1459.3 365.369 1459.08 365.408C1459.06 365.35 1459.04 365.311 1459 365.253Z" fill="#9A3B82"/>
<path d="M1467.43 365.253H1466.4C1466.52 365.563 1466.81 366.338 1467.45 366.338C1467.99 366.338 1469.73 365.912 1469.73 360.488C1469.73 354.909 1467.83 354.638 1467.45 354.638C1466.79 354.638 1466.5 355.432 1466.38 355.742H1467.41C1467.45 355.664 1467.48 355.626 1467.5 355.606C1467.85 355.703 1468.78 356.672 1468.78 360.507C1468.78 364.304 1467.89 365.311 1467.5 365.408C1467.48 365.35 1467.47 365.311 1467.43 365.253Z" fill="#9A3B82"/>
<path d="M1425.34 365.253H1424.31C1424.43 365.563 1424.72 366.338 1425.36 366.338C1425.65 366.338 1426.38 366.203 1426.93 364.982C1427.39 363.975 1427.62 362.445 1427.62 360.469C1427.62 358.648 1427.37 357.117 1426.93 356.071C1426.52 355.142 1425.94 354.599 1425.34 354.599C1424.68 354.599 1424.39 355.393 1424.27 355.703H1425.3C1425.34 355.645 1425.36 355.587 1425.38 355.568C1425.49 355.626 1425.76 355.839 1426.03 356.459C1426.33 357.098 1426.65 358.318 1426.65 360.449C1426.65 364.285 1425.72 365.234 1425.38 365.35C1425.4 365.35 1425.38 365.311 1425.34 365.253Z" fill="#9A3B82"/>
<path d="M1433.76 365.253H1432.73C1432.85 365.563 1433.14 366.338 1433.78 366.338C1434.07 366.338 1434.81 366.203 1435.35 364.982C1435.81 363.975 1436.04 362.444 1436.04 360.469C1436.04 355.025 1434.3 354.618 1433.76 354.618C1433.1 354.618 1432.81 355.413 1432.69 355.723H1433.72C1433.76 355.645 1433.8 355.606 1433.82 355.587C1434.2 355.684 1435.1 356.691 1435.1 360.488C1435.1 364.323 1434.17 365.273 1433.82 365.389C1433.82 365.35 1433.8 365.311 1433.76 365.253Z" fill="#9A3B82"/>
<path d="M1442.18 365.253H1441.15C1441.27 365.563 1441.56 366.338 1442.2 366.338C1442.74 366.338 1444.48 365.912 1444.48 360.488C1444.48 358.415 1444.25 356.865 1443.77 355.877C1443.25 354.793 1442.57 354.638 1442.2 354.638C1441.54 354.638 1441.25 355.432 1441.14 355.742H1442.16C1442.2 355.664 1442.24 355.626 1442.26 355.606C1442.49 355.645 1442.72 355.897 1442.92 356.304C1443.19 356.885 1443.54 358.086 1443.54 360.507C1443.54 364.304 1442.65 365.311 1442.26 365.408C1442.24 365.35 1442.2 365.311 1442.18 365.253Z" fill="#9A3B82"/>
<path d="M1400.09 365.254H1399.07C1399.18 365.564 1399.47 366.339 1400.11 366.339C1400.71 366.339 1401.27 365.797 1401.7 364.867C1402.16 363.821 1402.4 362.31 1402.4 360.47C1402.4 358.319 1402.01 356.963 1401.7 356.208C1401.27 355.201 1400.69 354.619 1400.11 354.619C1399.45 354.619 1399.16 355.414 1399.05 355.724H1400.07C1400.11 355.665 1400.13 355.627 1400.15 355.588C1400.29 355.665 1400.58 355.937 1400.85 356.673C1401.12 357.351 1401.43 358.552 1401.43 360.47C1401.43 362.62 1401.1 363.821 1400.81 364.479C1400.54 365.099 1400.27 365.312 1400.15 365.371C1400.15 365.351 1400.11 365.312 1400.09 365.254Z" fill="#9A3B82"/>
<path d="M1408.49 365.253H1407.47C1407.58 365.563 1407.87 366.338 1408.51 366.338C1409.11 366.338 1409.68 365.796 1410.1 364.866C1410.57 363.82 1410.8 362.309 1410.8 360.469C1410.8 356.672 1409.62 354.618 1408.51 354.618C1407.86 354.618 1407.56 355.413 1407.45 355.723H1408.47C1408.51 355.664 1408.53 355.626 1408.55 355.587C1408.69 355.664 1408.96 355.936 1409.25 356.633C1409.52 357.292 1409.83 358.512 1409.83 360.469C1409.83 362.619 1409.5 363.82 1409.21 364.478C1408.94 365.098 1408.67 365.311 1408.55 365.37C1408.55 365.35 1408.53 365.311 1408.49 365.253Z" fill="#9A3B82"/>
<path d="M1416.92 365.253H1415.89C1416.01 365.563 1416.3 366.338 1416.94 366.338C1417.23 366.338 1417.94 366.202 1418.52 364.905C1418.99 363.859 1419.22 362.367 1419.22 360.488C1419.22 358.667 1418.97 357.137 1418.52 356.091C1418.12 355.161 1417.54 354.618 1416.94 354.618C1416.28 354.618 1415.99 355.413 1415.87 355.723H1416.9C1416.94 355.664 1416.95 355.606 1416.97 355.587C1417.09 355.645 1417.36 355.858 1417.63 356.478C1417.92 357.117 1418.25 358.338 1418.25 360.469C1418.25 362.658 1417.92 363.859 1417.63 364.498C1417.36 365.098 1417.09 365.311 1416.97 365.35C1416.97 365.35 1416.95 365.311 1416.92 365.253Z" fill="#9A3B82"/>
<path d="M1462.99 219.561H1395.12C1391.19 219.561 1388.01 216.384 1388.01 212.451V144.535C1388.01 140.603 1391.19 137.426 1395.12 137.426H1462.99C1466.92 137.426 1470.1 140.603 1470.1 144.535V212.451C1470.1 216.384 1466.9 219.561 1462.99 219.561Z" fill="#FFCF2D"/>
<path d="M1458.04 215.008H1388.82C1384.89 215.008 1381.72 211.831 1381.72 207.899V138.646C1381.72 134.714 1384.89 131.537 1388.82 131.537H1458.04C1461.97 131.537 1465.14 134.714 1465.14 138.646V207.899C1465.14 211.831 1461.97 215.008 1458.04 215.008Z" fill="white" stroke="#FFCF2D" stroke-width="2" stroke-miterlimit="10"/>
<path d="M1423.44 205.226C1441.08 205.226 1455.38 190.916 1455.38 173.263C1455.38 155.61 1441.08 141.3 1423.44 141.3C1405.8 141.3 1391.5 155.61 1391.5 173.263C1391.5 190.916 1405.8 205.226 1423.44 205.226Z" stroke="#FFCF2D" stroke-width="2" stroke-miterlimit="10"/>
<path d="M1405.47 159.548L1423.44 173.263L1419.03 159.722" stroke="#FFCF2D" stroke-width="2" stroke-miterlimit="10" stroke-linecap="round"/>
<path d="M1366.56 420.268H1311.83L1288.85 392.645H1342.26L1366.56 420.268Z" fill="#FFCF2D"/>
<path d="M1396.2 421.702V438.749L1352.83 438.923C1347.28 438.942 1342.77 434.448 1342.77 428.888V423.6C1342.77 420.074 1341.47 416.684 1339.15 414.069L1324.84 397.991H1378.25L1391.92 411.493C1394.67 414.186 1396.2 417.847 1396.2 421.702Z" fill="white" stroke="#66B0F0" stroke-miterlimit="10"/>
<path d="M1415.72 432.743C1413.88 436.424 1410.08 438.942 1405.69 438.942H1352.25C1356.63 438.942 1360.42 436.424 1362.28 432.743H1415.72Z" fill="white" stroke="#66B0F0" stroke-miterlimit="10"/>
<path d="M1382.59 326.568L1349.99 269.268C1342.21 255.572 1327.67 247.126 1311.93 247.126H1189.82L1194.1 237.886C1193.75 238.641 1191.91 238.835 1189.11 238.448C1184.81 237.866 1178.27 235.987 1171.3 232.888C1167.31 231.125 1163.69 229.285 1160.69 227.58C1155.01 224.345 1151.59 221.517 1152.15 220.258L1089.81 322.558C1076.12 342.53 1090.41 369.67 1114.61 369.67C1117.86 369.67 1121.08 369.147 1124.13 368.12C1127.19 367.093 1130.08 365.582 1132.67 363.626L1180.55 327.614C1183.43 325.445 1187.56 327.13 1188.14 330.675L1194.39 369.67H1357.52C1379.65 369.689 1393.53 345.785 1382.59 326.568ZM1310.03 331.043L1315.26 319.149C1316.15 317.115 1319.01 317.076 1319.94 319.091L1325.61 331.062H1310.03V331.043Z" fill="#FE5244"/>
<path d="M1209.26 247.087C1209.26 237.072 1229.92 224.694 1254.97 221.536C1292.55 216.829 1300.68 237.072 1300.68 247.087" stroke="#FE5244" stroke-width="2" stroke-miterlimit="10"/>
<path d="M1296.34 247.262C1296.34 256.231 1254.97 274.595 1254.97 274.595C1254.97 274.595 1213.6 256.231 1213.6 247.262C1213.6 238.293 1233.27 227.91 1255.94 225.139C1288.56 221.149 1296.34 238.273 1296.34 247.262Z" fill="#FE5244"/>
<path d="M1296.34 247.262C1296.34 256.23 1254.97 274.595 1254.97 274.595C1254.97 274.595 1213.6 256.23 1213.6 247.262C1213.6 247.223 1213.6 247.184 1213.6 247.145H1296.34C1296.34 247.165 1296.34 247.203 1296.34 247.262Z" fill="white"/>
<path d="M1300.66 247.068C1300.66 256.967 1254.97 279.476 1254.97 279.476C1254.97 279.476 1209.28 256.986 1209.28 247.068" stroke="white" stroke-width="2" stroke-miterlimit="10"/>
<path d="M1290.22 369.244C1292.78 369.244 1294.85 360.778 1294.85 350.356C1294.85 339.935 1292.78 331.469 1290.22 331.469" stroke="white" stroke-width="2" stroke-miterlimit="10" stroke-linecap="round"/>
<path d="M1193.15 241.683L1157.32 313.376" stroke="white" stroke-width="2" stroke-miterlimit="10"/>
<path d="M1185.37 311.73L1191.29 350.744" stroke="white" stroke-width="2" stroke-miterlimit="10" stroke-linecap="round"/>
<path d="M1253.03 284.067H1256.91" stroke="white" stroke-width="2" stroke-miterlimit="10" stroke-linecap="round"/>
<path d="M1253.03 288.678H1256.91" stroke="white" stroke-width="2" stroke-miterlimit="10" stroke-linecap="round"/>
<path d="M1253.03 293.269H1256.91" stroke="white" stroke-width="2" stroke-miterlimit="10" stroke-linecap="round"/>
<path d="M1253.03 297.86H1256.91" stroke="white" stroke-width="2" stroke-miterlimit="10" stroke-linecap="round"/>
<path d="M1253.03 302.451H1256.91" stroke="white" stroke-width="2" stroke-miterlimit="10" stroke-linecap="round"/>
<path d="M1253.03 307.061H1256.91" stroke="white" stroke-width="2" stroke-miterlimit="10" stroke-linecap="round"/>
<path d="M1253.03 307.274H1256.91" stroke="white" stroke-width="2" stroke-miterlimit="10" stroke-linecap="round"/>
<path d="M1253.03 311.865H1256.91" stroke="white" stroke-width="2" stroke-miterlimit="10" stroke-linecap="round"/>
<path d="M1253.03 316.457H1256.91" stroke="white" stroke-width="2" stroke-miterlimit="10" stroke-linecap="round"/>
<path d="M1253.03 320.834H1256.91" stroke="white" stroke-width="2" stroke-miterlimit="10" stroke-linecap="round"/>
<path d="M1253.03 325.445H1256.91" stroke="white" stroke-width="2" stroke-miterlimit="10" stroke-linecap="round"/>
<path d="M1253.03 330.036H1256.91" stroke="white" stroke-width="2" stroke-miterlimit="10" stroke-linecap="round"/>
<path d="M1253.03 334.627H1256.91" stroke="white" stroke-width="2" stroke-miterlimit="10" stroke-linecap="round"/>
<path d="M1253.03 339.218H1256.91" stroke="white" stroke-width="2" stroke-miterlimit="10" stroke-linecap="round"/>
<path d="M1253.03 343.828H1256.91" stroke="white" stroke-width="2" stroke-miterlimit="10" stroke-linecap="round"/>
<path d="M1253.03 348.419H1256.91" stroke="white" stroke-width="2" stroke-miterlimit="10" stroke-linecap="round"/>
<path d="M1253.03 353.01H1256.91" stroke="white" stroke-width="2" stroke-miterlimit="10" stroke-linecap="round"/>
<path d="M1253.03 357.601H1256.91" stroke="white" stroke-width="2" stroke-miterlimit="10" stroke-linecap="round"/>
<path d="M1253.03 357.834H1256.91" stroke="white" stroke-width="2" stroke-miterlimit="10" stroke-linecap="round"/>
<path d="M1253.03 362.425H1256.91" stroke="white" stroke-width="2" stroke-miterlimit="10" stroke-linecap="round"/>
<path d="M1253.03 367.016H1256.91" stroke="white" stroke-width="2" stroke-miterlimit="10" stroke-linecap="round"/>
<path d="M1252.63 277.81V350.744" stroke="white" stroke-width="2" stroke-miterlimit="10"/>
<path d="M1287.98 331.43H1334.54" stroke="white" stroke-width="2" stroke-miterlimit="10" stroke-linecap="round"/>
<path d="M1158.42 407.657H1307.09L1293.11 369.825H1174.53L1158.42 407.657Z" fill="white" stroke="#66B0F0" stroke-width="2" stroke-miterlimit="10"/>
<path d="M1158.42 407.657C1158.42 402.311 1172.59 392.644 1195.61 391.327C1220.26 389.932 1233.17 405.43 1232.8 407.657H1158.42Z" fill="#66B0F0"/>
<path d="M1232.78 407.657C1232.78 407.657 1226.24 377.05 1168.8 383.288L1181.21 353.088C1181.21 353.088 1228.25 344.526 1232.8 369.825L1232.78 407.657Z" fill="white" stroke="#66B0F0" stroke-width="2" stroke-miterlimit="10" stroke-linejoin="round"/>
<path d="M1306.22 405.275C1302.79 400.529 1289.59 395.57 1269.92 394.446C1246.53 393.11 1233.71 404.229 1232.78 407.251V369.825C1232.78 369.825 1249.47 350.764 1293.11 369.825L1306.22 405.275Z" fill="white" stroke="#66B0F0" stroke-width="2" stroke-miterlimit="10" stroke-linejoin="round"/>
<path d="M1286.14 389.622C1281.26 388.383 1275.36 387.453 1268.62 387.066C1265.27 386.872 1262.15 386.969 1259.29 387.279C1252.18 388.073 1246.59 390.204 1242.6 392.489" stroke="#66B0F0" stroke-width="2" stroke-miterlimit="10" stroke-linecap="round" stroke-linejoin="round"/>
<path d="M1284.42 383.172C1279.75 382.068 1274.19 381.235 1267.92 380.867C1264.57 380.673 1261.46 380.77 1258.59 381.08C1251.49 381.874 1245.89 384.005 1241.9 386.291" stroke="#66B0F0" stroke-width="2" stroke-miterlimit="10" stroke-linecap="round" stroke-linejoin="round"/>
<path d="M1282.83 376.741C1278.38 375.753 1273.21 375.016 1267.4 374.668C1264.05 374.474 1260.93 374.571 1258.07 374.881C1250.96 375.675 1245.37 377.806 1241.38 380.092" stroke="#66B0F0" stroke-width="2" stroke-miterlimit="10" stroke-linecap="round" stroke-linejoin="round"/>
<path d="M1289.22 368.12L1301.53 401.672" stroke="#66B0F0" stroke-width="2" stroke-miterlimit="10"/>
<path d="M1307.11 407.657H1232.78V407.25C1233.71 404.228 1246.53 393.109 1269.92 394.446C1289.59 395.569 1302.79 400.529 1306.22 405.275L1307.11 407.657Z" fill="#66B0F0"/>
<path d="M1278.69 247.127C1278.69 247.127 1264.82 254.353 1245.58 251.447C1240.8 250.731 1235.67 249.374 1230.36 247.127V223.804L1255.3 208.268L1259.03 214.487L1278.69 247.127Z" fill="#E57281"/>
<path d="M1256.67 210.107C1258.16 212.877 1258.42 216.171 1257.33 219.134L1245.58 251.446C1240.8 250.729 1235.67 249.373 1230.36 247.126V223.803L1255.41 207.783L1256.67 210.107Z" fill="#9A3B82"/>
<path d="M1254.52 199.666C1254.52 199.666 1257.45 173.65 1247.05 171.268C1239.11 169.447 1235.16 175.432 1235.16 175.432C1235.16 175.432 1230.87 169.156 1224.21 172.101C1217.88 174.89 1218.32 183.588 1221.17 182.89C1224.01 182.193 1218.42 176.614 1212.44 180.74C1205.81 185.293 1212.44 192.809 1212.44 192.809C1212.44 192.809 1207.54 190.445 1205.27 195.269C1202.47 201.255 1218.5 214.156 1218.5 214.156L1254.52 199.666Z" fill="#9A3B82"/>
<path d="M1238.69 187.094L1222.06 193.777C1218.05 195.385 1216.09 199.976 1217.7 203.967L1224.96 222.079C1227.63 228.762 1235.3 232.017 1241.96 229.343L1248.87 226.573C1255.55 223.9 1258.8 216.229 1256.13 209.565L1248.87 191.453C1247.26 187.443 1242.68 185.486 1238.69 187.094Z" fill="#E57281"/>
<path d="M1259.48 208.209L1256.13 209.565L1252.49 200.499L1255.84 199.143C1257.83 198.349 1260.08 199.318 1260.87 201.293L1261.63 203.172C1262.44 205.148 1261.47 207.395 1259.48 208.209Z" fill="#E57281"/>
<path d="M1221.36 222.776L1224.71 221.42L1221.32 212.994L1217.97 214.35C1215.98 215.144 1215.03 217.41 1215.82 219.386L1216.33 220.626C1217.12 222.602 1219.37 223.57 1221.36 222.776Z" fill="#9A3B82"/>
<path d="M1255.4 205.303C1254.78 203.734 1255.53 201.971 1257.1 201.332" stroke="#9A3B82" stroke-width="2" stroke-miterlimit="10" stroke-linecap="round"/>
<path d="M1239.11 196.916C1239.11 196.916 1243.04 198.388 1248.04 196.024" stroke="#9A3B82" stroke-width="2" stroke-miterlimit="10" stroke-linecap="round"/>
<path d="M1230.81 203.541C1230.81 203.541 1236.67 202.94 1238.8 212.819" stroke="#9A3B82" stroke-width="2" stroke-miterlimit="10" stroke-linecap="round"/>
<path d="M1247.46 216.035C1247.46 216.035 1238.8 213.711 1239.11 218.185" stroke="#9A3B82" stroke-width="2" stroke-miterlimit="10" stroke-linecap="round"/>
<path d="M1246.25 206.873C1246.66 206.726 1246.7 205.782 1246.34 204.763C1245.98 203.745 1245.35 203.038 1244.94 203.184C1244.53 203.331 1244.49 204.275 1244.85 205.294C1245.21 206.312 1245.83 207.019 1246.25 206.873Z" fill="#9A3B82"/>
<path d="M1230.28 213.539C1230.69 213.393 1230.73 212.448 1230.37 211.43C1230.01 210.411 1229.39 209.704 1228.97 209.851C1228.56 209.997 1228.52 210.941 1228.88 211.96C1229.24 212.978 1229.87 213.685 1230.28 213.539Z" fill="#9A3B82"/>
<path d="M1246.06 210.592C1249.15 210.592 1251.66 208.085 1251.66 204.993C1251.66 201.901 1249.15 199.395 1246.06 199.395C1242.97 199.395 1240.47 201.901 1240.47 204.993C1240.47 208.085 1242.97 210.592 1246.06 210.592Z" stroke="#FFCF2D" stroke-width="2" stroke-miterlimit="10" stroke-linecap="round"/>
<path d="M1229.61 216.984C1232.7 216.984 1235.2 214.478 1235.2 211.386C1235.2 208.294 1232.7 205.788 1229.61 205.788C1226.52 205.788 1224.01 208.294 1224.01 211.386C1224.01 214.478 1226.52 216.984 1229.61 216.984Z" stroke="#FFCF2D" stroke-width="2" stroke-miterlimit="10" stroke-linecap="round"/>
<path d="M1234.83 209.371L1240.74 206.659" stroke="#FFCF2D" stroke-width="2" stroke-miterlimit="10" stroke-linecap="round"/>
<path d="M1195.26 235.755C1194.93 236.511 1193.08 236.704 1190.27 236.317C1185.97 235.736 1179.43 233.857 1172.46 230.757C1168.47 228.975 1164.85 227.154 1161.87 225.45C1156.19 222.215 1152.77 219.386 1153.33 218.127C1153.89 216.887 1158.25 217.488 1164.4 219.483C1167.71 220.549 1171.53 222.021 1175.55 223.822C1182.45 226.883 1188.43 229.866 1191.95 232.171C1194.35 233.721 1195.61 234.98 1195.26 235.755Z" fill="white" stroke="#FE5244" stroke-width="2" stroke-miterlimit="10"/>
<path d="M1228.12 196.47L1222.85 216.829L1218.11 205.013C1216.29 200.48 1218.48 195.288 1222.95 193.39L1228.12 196.47Z" fill="#9A3B82"/>
<path d="M1228.31 196.102L1217.86 214.233C1216.66 216.326 1214.41 217.623 1211.99 217.623H1201.19C1199.6 217.623 1198.19 218.592 1197.59 220.045L1191.97 232.191L1190.33 235.736C1185.58 235.096 1178.98 233.043 1172.67 230.234C1170.31 229.188 1168 228.084 1165.88 226.98L1168.72 221.033L1173.81 210.398C1176.25 204.645 1180.45 199.802 1185.82 196.586L1196.35 190.252C1197.74 189.419 1199.35 188.973 1200.97 188.973H1218.86C1219.85 188.973 1220.82 189.186 1221.69 189.612L1227.07 192.169C1228.56 192.886 1229.12 194.688 1228.31 196.102Z" fill="#E57281"/>
<path d="M1203.03 196.683H1215.8C1216.75 196.683 1217.68 196.896 1218.53 197.303L1223.7 199.782C1225.12 200.46 1225.66 202.204 1224.88 203.56" stroke="#9A3B82" stroke-width="2" stroke-miterlimit="10" stroke-linecap="round"/>
<path d="M1199.85 202.185H1212.63C1213.58 202.185 1214.51 202.398 1215.36 202.804L1220.53 205.284C1221.94 205.962 1222.48 207.705 1221.71 209.061" stroke="#9A3B82" stroke-width="2" stroke-miterlimit="10" stroke-linecap="round"/>
<path d="M1196.12 209.371H1208.89C1209.84 209.371 1210.77 209.584 1211.62 209.991L1216.79 212.471C1218.2 213.149 1218.75 214.892 1217.97 216.248" stroke="#9A3B82" stroke-width="2" stroke-miterlimit="10" stroke-linecap="round"/>
<path d="M1190.35 235.736C1185.6 235.096 1179 233.043 1172.69 230.234C1170.33 229.188 1168.02 228.084 1165.89 226.98L1169.11 220.413C1171.26 221.226 1173.37 222.156 1175.73 223.222C1182.62 226.282 1188.64 229.479 1192.17 231.784L1190.35 235.736Z" fill="#9A3B82"/>
<path d="M1192.34 217.1H1201.4" stroke="#9A3B82" stroke-width="2" stroke-miterlimit="10" stroke-linecap="round"/>
<path d="M1287.9 369.67C1290.46 369.67 1292.53 361.023 1292.53 350.357C1292.53 339.69 1290.46 331.043 1287.9 331.043C1285.35 331.043 1283.27 339.69 1283.27 350.357C1283.27 361.023 1285.35 369.67 1287.9 369.67Z" fill="white"/>
<path d="M1292.53 350.357C1292.53 353.669 1292.33 356.788 1291.97 359.519C1290.77 362.58 1288.31 365.001 1285.21 366.144C1283.95 366.609 1282.58 366.88 1281.14 366.88H1263.58C1261.38 366.88 1259.58 368.682 1259.58 370.89V371.433C1259.58 374.668 1256.13 376.76 1253.27 375.249L1245.02 370.929C1243.55 370.154 1242.62 368.624 1242.62 366.958V360.507C1242.62 358.086 1243.76 355.819 1245.68 354.366L1258.26 344.894C1260.39 343.286 1262.98 342.434 1265.64 342.434H1292.1C1292.39 344.855 1292.53 347.528 1292.53 350.357Z" fill="#E57281"/>
<path d="M1261.44 348.671L1249.88 357.369C1248.12 358.706 1247.07 360.798 1247.07 363.006V368.934C1247.07 370.464 1247.92 371.878 1249.28 372.576" stroke="#9A3B82" stroke-width="2" stroke-miterlimit="10" stroke-linecap="round"/>
<path d="M1267.32 351.267L1255.76 359.965C1254 361.301 1252.96 363.394 1252.96 365.602V371.53C1252.96 373.06 1253.81 374.474 1255.16 375.171" stroke="#9A3B82" stroke-width="2" stroke-miterlimit="10" stroke-linecap="round"/>
<path d="M1292.53 350.357C1292.53 353.669 1292.33 356.788 1291.97 359.519C1290.77 362.58 1288.31 365.001 1285.21 366.144C1284.03 362.638 1283.25 356.885 1283.25 350.357C1283.25 347.528 1283.41 344.855 1283.66 342.434H1292.12C1292.39 344.855 1292.53 347.528 1292.53 350.357Z" fill="#9A3B82"/>
<path d="M1326.16 378.503C1337.75 378.503 1347.14 377.714 1347.14 376.74C1347.14 375.767 1337.75 374.978 1326.16 374.978C1314.57 374.978 1305.17 375.767 1305.17 376.74C1305.17 377.714 1314.57 378.503 1326.16 378.503Z" fill="#FFCF2D"/>
<path d="M1343.62 378.077H1334.95C1326.89 378.077 1320.39 371.549 1320.39 363.51V351.131H1358.2V363.49C1358.2 371.549 1351.67 378.077 1343.62 378.077Z" fill="white" stroke="#FFCF2D" stroke-width="6" stroke-miterlimit="10"/>
<path d="M1363.48 361.728H1358.18V352.294H1363.48C1365.75 352.294 1367.61 354.134 1367.61 356.42V357.621C1367.61 359.887 1365.75 361.728 1363.48 361.728Z" stroke="#FFCF2D" stroke-width="6" stroke-miterlimit="10"/>
<path d="M1339.28 354.812C1349.81 354.812 1358.35 353.103 1358.35 350.996C1358.35 348.888 1349.81 347.179 1339.28 347.179C1328.75 347.179 1320.21 348.888 1320.21 350.996C1320.21 353.103 1328.75 354.812 1339.28 354.812Z" fill="#3FB1B5" stroke="white" stroke-width="5" stroke-miterlimit="10"/>
<path d="M1320.41 354.095C1320.41 356.207 1328.87 357.911 1339.28 357.911C1349.7 357.911 1358.16 356.207 1358.16 354.095" stroke="#FFCF2D" stroke-width="6" stroke-miterlimit="10"/>
<path d="M1320.41 358.144C1320.41 360.255 1328.87 361.96 1339.28 361.96C1349.7 361.96 1358.16 360.255 1358.16 358.144" stroke="#FFCF2D" stroke-width="6" stroke-miterlimit="10"/>
<path d="M1320.41 362.192C1320.41 364.304 1328.87 366.009 1339.28 366.009C1349.7 366.009 1358.16 364.304 1358.16 362.192" stroke="#FFCF2D" stroke-width="6" stroke-miterlimit="10"/>
<path d="M1320.7 366.241C1320.7 368.353 1329.02 370.057 1339.28 370.057C1349.54 370.057 1357.87 368.353 1357.87 366.241" stroke="#FFCF2D" stroke-width="6" stroke-miterlimit="10"/>
<path d="M1322.15 370.29C1322.15 372.401 1329.82 374.106 1339.28 374.106C1348.75 374.106 1356.42 372.401 1356.42 370.29" stroke="#FFCF2D" stroke-width="6" stroke-miterlimit="10"/>
<path d="M1338.53 344.216C1336.67 342.937 1330.88 330.753 1338.04 325.774C1343.54 321.939 1344.61 331.876 1342.07 331.043C1337.66 329.59 1334.96 310.141 1346.48 311.342C1351.56 311.865 1350.99 319.091 1346.48 319.285" stroke="white" stroke-width="5" stroke-miterlimit="10" stroke-linecap="round"/>
<path d="M1113.37 401.129H1018.22C1015.66 401.129 1013.38 399.579 1012.43 397.216L986.388 332.825C985.149 329.745 987.414 326.375 990.725 326.375H1085.88C1088.43 326.375 1090.72 327.924 1091.67 330.288L1117.71 394.678C1118.97 397.759 1116.7 401.129 1113.37 401.129Z" fill="white" stroke="#FFCF2D" stroke-width="2" stroke-miterlimit="10"/>
<path d="M1108.96 401.594H1018.18C1015.76 401.594 1013.57 400.122 1012.66 397.875L987.821 336.448C986.64 333.503 988.789 330.307 991.964 330.307H1082.74C1085.16 330.307 1087.35 331.779 1088.26 334.026L1113.1 395.453C1114.28 398.398 1112.11 401.594 1108.96 401.594Z" fill="#FFCF2D"/>
<path d="M1053.22 373.66C1050.55 373.66 1048.03 372.614 1046.13 370.716C1044.58 369.166 1043.73 367.113 1043.73 364.943C1043.73 362.754 1044.58 360.701 1046.13 359.171C1047.39 357.911 1049.08 357.214 1050.86 357.214C1052.64 357.214 1054.32 357.911 1055.58 359.171C1057.73 361.321 1057.73 364.808 1055.58 366.958C1053.8 368.74 1050.91 368.74 1049.13 366.958C1048.82 366.648 1048.82 366.164 1049.13 365.854C1049.44 365.544 1049.93 365.544 1050.24 365.854C1051.42 367.035 1053.32 367.035 1054.5 365.854C1056.05 364.304 1056.05 361.805 1054.5 360.255C1053.53 359.287 1052.23 358.744 1050.86 358.744C1049.48 358.744 1048.19 359.287 1047.22 360.255C1045.96 361.515 1045.28 363.161 1045.28 364.943C1045.28 366.706 1045.98 368.372 1047.22 369.631C1048.82 371.239 1050.93 372.111 1053.2 372.111C1055.46 372.111 1057.59 371.239 1059.18 369.631C1059.49 369.321 1059.98 369.321 1060.29 369.631C1060.59 369.941 1060.59 370.425 1060.29 370.735C1058.41 372.614 1055.89 373.66 1053.22 373.66Z" fill="white"/>
<path d="M1147.42 407.948H1018.33C1016.84 407.948 1015.64 406.747 1015.64 405.255V403.957C1015.64 402.466 1016.84 401.265 1018.33 401.265H1147.42C1148.92 401.265 1150.12 402.466 1150.12 403.957V405.255C1150.1 406.747 1148.9 407.948 1147.42 407.948Z" fill="white" stroke="#FFCF2D" stroke-width="2" stroke-miterlimit="10"/>
</g>
<defs>
<linearGradient id="paint0_linear" x1="590.5" y1="-2" x2="1386.43" y2="44.0998" gradientUnits="userSpaceOnUse">
<stop stop-color="#4CBBBF"/>
<stop offset="0.630208" stop-color="#D1EDEE"/>
</linearGradient>
<clipPath id="clip0">
<rect width="1600" height="640" fill="white"/>
</clipPath>
</defs>
</svg>
