<svg xmlns="http://www.w3.org/2000/svg" xmlns:xlink="http://www.w3.org/1999/xlink" viewBox="0 0 1939 392"><defs><style>.cls-1{fill:url(#linear-gradient);}</style><linearGradient id="linear-gradient" x1="24.45" y1="196" x2="286.54" y2="196" gradientUnits="userSpaceOnUse"><stop offset="0" stop-color="#00d9bc"/><stop offset="1" stop-color="#297cb6"/></linearGradient></defs><g id="Layer_6" data-name="Layer 6"><path d="M507.4,220.67,566.09,55.2H523.42L482.17,180.13l-35.11-107a26.12,26.12,0,0,0-24.82-18h-24L457,220.67Z"/><path d="M631.61,81.32A26.12,26.12,0,0,0,605.49,55.2H591.3V220.67h40.31Z"/><path d="M707.74,100.22c0-10.37,7.31-15.32,17-15.08,7.45.16,13.35,3.22,16.53,8.56,3.08,5.17,8.34,8.64,14.35,8.64h31.82c-1.65-31.58-25.93-49.5-62-49.5-34.65,0-60.34,17.45-60.34,48.8-.47,58.69,82.26,42.19,82.26,72.83,0,9.67-7.54,15.56-19.32,15.56-8.31,0-14.84-3.3-18.19-10.09a16,16,0,0,0-14.45-8.77H664.61c1.17,33.48,29,51.15,64.58,51.15,38.66,0,60.35-23.1,60.35-50.91C789.54,116,707.74,129,707.74,100.22Z"/><path d="M920.35,154.2c0,19.57-10.13,30.88-29.22,30.88s-28.76-11.31-28.76-30.88V81.32A26.12,26.12,0,0,0,836.24,55.2H822.06V154c0,45.73,29.93,68.35,68.36,68.35,38.18,0,70.24-22.62,70.24-68.35V55.2H920.35Z"/><path d="M1074.79,55.2h-28.34L986.58,220.67h42.19l9.9-29.23h61.76l9.9,29.23H1153L1099.36,72.43A26.13,26.13,0,0,0,1074.79,55.2Zm-25.51,105.13,20.27-60.58,20.51,60.58Z"/><path d="M1272.73,189.56h-52.8V81.32a26.11,26.11,0,0,0-26.12-26.12h-14.19V220.67h93.11Z"/><path d="M1314.73,55.2h-14.19V220.67h40.31V81.32A26.11,26.11,0,0,0,1314.73,55.2Z"/><path d="M1437.26,190c-8.31,0-14.84-3.3-18.19-10.09a16.05,16.05,0,0,0-14.45-8.77h-30.77c1.17,33.48,29,51.15,64.58,51.15,38.66,0,60.35-23.1,60.35-50.91,0-55.4-81.8-42.43-81.8-71.19,0-10.37,7.31-15.32,17-15.08,7.46.16,13.35,3.22,16.54,8.56,3.08,5.17,8.34,8.64,14.35,8.64h31.82c-1.65-31.58-25.93-49.5-62-49.5-34.65,0-60.34,17.45-60.34,48.8-.47,58.69,82.26,42.19,82.26,72.83C1456.58,184.14,1449,190,1437.26,190Z"/><path d="M1633.94,72.43a26.12,26.12,0,0,0-24.56-17.23H1581l-59.87,165.47h42.2l9.89-29.23H1635l9.9,29.23h42.67Zm-50.08,87.9,20.27-60.58,20.51,60.58Z"/><path d="M1772.9,190c-8.3,0-14.83-3.3-18.18-10.09a16.05,16.05,0,0,0-14.45-8.77h-30.78c1.18,33.48,29,51.15,64.59,51.15,38.66,0,60.34-23.1,60.34-50.91,0-55.4-81.79-42.43-81.79-71.19,0-10.37,7.31-15.32,17-15.08,7.46.16,13.35,3.22,16.54,8.56,3.08,5.17,8.33,8.64,14.35,8.64h31.81c-1.65-31.58-25.93-49.5-62-49.5-34.65,0-60.34,17.45-60.34,48.8-.48,58.69,82.26,42.19,82.26,72.83C1792.23,184.14,1784.69,190,1772.9,190Z"/><path d="M1908,81.32a26.12,26.12,0,0,0-26.12-26.12h-14.19V220.67H1908Z"/><path d="M427.12,275.33l-22.87,63.2h16.12l3.78-11.17h23.59l3.78,11.17h16.3L445,275.33Zm1.08,40.15,7.74-23.14,7.84,23.14Z"/><polygon points="490.14 275.33 474.75 275.33 474.75 338.53 510.31 338.53 510.31 326.64 490.14 326.64 490.14 275.33"/><path d="M544.25,314.22h19.54c-2.35,7.11-7.66,11.16-15.31,11.16-11.08,0-17.74-6.84-17.74-18.54,0-11,6.58-18,16.48-18,5.76,0,10.08,2.25,12.42,6.48h17c-3.33-13-14.32-20.71-29.44-20.71-18.91,0-32.14,13.33-32.14,32.24S528.4,339,547.31,339c16.65,0,27.19-10.89,30.43-21.79V302.88H544.25Z"/><path d="M616.18,274.42c-17.92,0-32.5,13.33-32.5,32.33s14.58,32.41,32.5,32.41,32.32-13.42,32.32-32.41S634.18,274.42,616.18,274.42Zm0,50.69c-10.26,0-16.75-7.29-16.75-18.36,0-11.26,6.49-18.37,16.75-18.37,10.08,0,16.66,7.11,16.66,18.37C632.84,317.82,626.26,325.11,616.18,325.11Z"/><path d="M706.12,295.22c0-11-7.75-19.89-23.23-19.89H657.05v63.2h15.4V314.67h3.69l13.14,23.86h17.38l-14.59-25C701.8,310.62,706.12,303.15,706.12,295.22ZM682,303.78h-9.54V288.11H682c5.76,0,8.46,3.06,8.46,7.74C690.45,300.81,687.75,303.78,682,303.78Z"/><rect x="715.75" y="275.33" width="15.4" height="63.2"/><polygon points="738.88 287.66 755.63 287.66 755.63 338.53 771.02 338.53 771.02 287.66 787.77 287.66 787.77 275.33 738.88 275.33 738.88 287.66"/><polygon points="831.43 319.08 813.7 275.33 795.51 275.33 795.51 338.53 810.91 338.53 810.91 300.53 825.13 338.53 837.55 338.53 851.69 300.63 851.69 338.53 867.09 338.53 867.09 275.33 848.99 275.33 831.43 319.08"/><path d="M896.88,275.33,874,338.53h16.11l3.78-11.17H917.5l3.78,11.17h16.3l-22.87-63.2ZM898,315.48l7.74-23.14,7.84,23.14Z"/><path d="M987.27,275.33H963.59v63.2h23.68c20.17,0,33.13-12.88,33.13-31.6S1007.44,275.33,987.27,275.33Zm-1,49.87H979V288.47h7.29c11.61,0,18.46,6.84,18.46,18.46S997.89,325.2,986.28,325.2Z"/><path d="M1047.76,275.33l-22.86,63.2H1041l3.79-11.17h23.58l3.79,11.17h16.29l-22.87-63.2Zm1.09,40.15,7.74-23.14,7.83,23.14Z"/><polygon points="1136.54 314.49 1110.79 275.33 1095.39 275.33 1095.39 338.53 1110.79 338.53 1110.79 299.54 1136.54 338.53 1151.93 338.53 1151.93 275.33 1136.54 275.33 1136.54 314.49"/><path d="M1196.85,292.52c0-4,2.79-5.85,6.49-5.76,4.13.09,7,2.52,7.29,6.57h16.65c-.63-12.06-9.9-18.91-23.68-18.91-13.23,0-23,6.67-23,18.64-.18,22.42,31.42,16.12,31.42,27.82,0,3.69-2.88,5.94-7.38,5.94-4.33,0-7.39-2.34-7.84-7.2h-16.38c.45,12.79,11.07,19.54,24.67,19.54,14.76,0,23-8.82,23-19.45C1228.09,298.55,1196.85,303.51,1196.85,292.52Z"/><polygon points="1234.12 287.66 1250.87 287.66 1250.87 338.53 1266.26 338.53 1266.26 287.66 1283.01 287.66 1283.01 275.33 1234.12 275.33 1234.12 287.66"/><path d="M1339.82,295.22c0-11-7.75-19.89-23.23-19.89h-25.84v63.2h15.4V314.67h3.68L1323,338.53h17.38l-14.59-25C1335.5,310.62,1339.82,303.15,1339.82,295.22Zm-24.13,8.56h-9.54V288.11h9.54c5.76,0,8.46,3.06,8.46,7.74C1324.15,300.81,1321.45,303.78,1315.69,303.78Z"/><path d="M1386.72,313.14c0,7.47-3.88,11.79-11.17,11.79s-11-4.32-11-11.79V275.33h-15.4v37.72c0,17.47,11.44,26.11,26.11,26.11s26.83-8.64,26.83-26.11V275.33h-15.39Z"/><polygon points="1467.47 275.33 1449.38 275.33 1428.31 303.06 1428.31 275.33 1412.91 275.33 1412.91 338.53 1428.31 338.53 1428.31 310.62 1449.56 338.53 1468.37 338.53 1442.98 306.3 1467.47 275.33"/><polygon points="1472.24 287.66 1488.99 287.66 1488.99 338.53 1504.38 338.53 1504.38 287.66 1521.13 287.66 1521.13 275.33 1472.24 275.33 1472.24 287.66"/><path d="M1566.14,313.14c0,7.47-3.87,11.79-11.16,11.79s-11-4.32-11-11.79V275.33H1528.6v37.72c0,17.47,11.43,26.11,26.11,26.11s26.83-8.64,26.83-26.11V275.33h-15.4Z"/><path d="M1641.4,295.22c0-11-7.74-19.89-23.22-19.89h-25.84v63.2h15.39V314.67h3.69l13.15,23.86H1642l-14.59-25C1637.08,310.62,1641.4,303.15,1641.4,295.22Zm-24.13,8.56h-9.54V288.11h9.54c5.77,0,8.47,3.06,8.47,7.74C1625.74,300.81,1623,303.78,1617.27,303.78Z"/><path d="M1693.79,275.33h-23.67v63.2h23.67c20.17,0,33.14-12.88,33.14-31.6S1714,275.33,1693.79,275.33Zm-1,49.87h-7.3V288.47h7.3c11.61,0,18.45,6.84,18.45,18.46S1704.42,325.2,1692.81,325.2Z"/><path d="M1754.29,275.33l-22.86,63.2h16.11l3.78-11.17h23.59l3.78,11.17H1795l-22.87-63.2Zm1.08,40.15,7.75-23.14,7.83,23.14Z"/><polygon points="1798.49 287.66 1815.24 287.66 1815.24 338.53 1830.63 338.53 1830.63 287.66 1847.38 287.66 1847.38 275.33 1798.49 275.33 1798.49 287.66"/><path d="M1891.68,275.33h-17.83L1851,338.53h16.12l3.78-11.17h23.59l3.78,11.17h16.3Zm-16.75,40.15,7.74-23.14,7.84,23.14Z"/><path class="cls-1" d="M202.29,180.5v-102L259.57,21h0a31.61,31.61,0,0,0-44.7.08L24.45,212.11h84.22V313.67L51.34,371h0a31.61,31.61,0,0,0,44.71,0L286.54,180.5Zm-31.61-70.33V180.5h-70.1Zm-30.4,101.94h69.94l-69.94,69.95Z"/></g></svg>